<svg height="512" viewBox="0 0 64 64" width="512" xmlns="http://www.w3.org/2000/svg"><g id="smarthome"><path d="m8 15h48v46h-48z" fill="#ff7956"/><path d="m30 25h20v20h-20z" fill="#00d7df"/><path d="m61 15h-58l6-12h46z" fill="#57a4ff"/><path d="m51 15h5v46h-5z" fill="#ff5023"/><path d="m61 15h-5l-6-12h5z" fill="#006df0"/><circle cx="44" cy="31" fill="#ffde55" r="2"/><path d="m22 45v16h-10v-16h1z" fill="#57a4ff"/><path d="m17 45h5v16h-5z" fill="#006df0"/><path d="m46 25h4v20h-4z" fill="#009698"/><path d="m61.89 14.55-6-12a.988.988 0 0 0 -.89-.55h-46a.988.988 0 0 0 -.89.55l-6 12a1 1 0 0 0 .89 1.45h4v45a1 1 0 0 0 1 1h48a1 1 0 0 0 1-1v-45h4a1 1 0 0 0 .89-1.45zm-40.89 45.45h-8v-14h8zm18 0h-16v-15a1 1 0 0 0 -1-1h-10a1 1 0 0 0 -1 1v15h-2v-44h26v8h-2v-1a3.009 3.009 0 0 0 -3-3h-15v2h15a1 1 0 0 1 1 1v1h-1a1 1 0 0 0 -1 1v1h-14v2h14v2h-7v2h7v2h-14a3.009 3.009 0 0 0 -3 3v5h2v-5a1 1 0 0 1 1-1h14v2h-7v2h7v2h-1a3.009 3.009 0 0 0 -3 3v8h2v-8a1 1 0 0 1 1-1h1v1a1 1 0 0 0 1 1h1v7h2v-7h2v8a1 1 0 0 1 -1 1h-5v2h5a3.009 3.009 0 0 0 3-3v-8h2zm10-34v18h-18v-18zm6 34h-14v-14h2v8a3.009 3.009 0 0 0 3 3h5v-2h-5a1 1 0 0 1 -1-1v-8h2v5a1 1 0 0 0 1 1h7zm0-10h-6v-4h1a1 1 0 0 0 1-1v-1h2v-2h-2v-2h4zm0-12h-4v-2h2v-2h-2v-2h4zm0-8h-4v-2h2v-2h-2v-1a1 1 0 0 0 -1-1h-1v-3a1 1 0 0 1 1-1h3v-2h-3a3.009 3.009 0 0 0 -3 3v3h-2v-6h-2v6h-2v-4h-2v4h-2v-8h18zm-50.38-16 5-10h44.76l5 10z"/><path d="m11 20h2v2h-2z"/><path d="m11 26h2v2h-2z"/><path d="m18 30h2v2h-2z"/><path d="m43 33.816v8.184h2v-8.184a2.993 2.993 0 1 0 -3.816-3.816h-4.184v2h4.184a3 3 0 0 0 1.816 1.816zm1-3.816a1 1 0 1 1 -1 1 1 1 0 0 1 1-1z"/><path d="m33 30h2v2h-2z"/><path d="m25 55h2v2h-2z"/><path d="m18 38h2v2h-2z"/></g></svg>