<?xml version="1.0" encoding="utf-8"?>
<!-- Generator: Adobe Illustrator 19.2.1, SVG Export Plug-In . SVG Version: 6.00 Build 0)  -->
<svg version="1.1" id="Layer_1" focusable="false" xmlns="http://www.w3.org/2000/svg" xmlns:xlink="http://www.w3.org/1999/xlink"
	 x="0px" y="0px" viewBox="0 0 448 512" style="enable-background:new 0 0 448 512;" xml:space="preserve">
<style type="text/css">
	.st0{fill:#F55D58;}
</style>
<path class="st0" d="M223.9,100.2c-85.1,0-154.4,69.2-154.5,154.4c0,29.2,8.2,57.6,23.7,82.1l3.6,5.9l-15.6,56.9l58.4-15.3l5.6,3.4
	c23.7,14.1,50.8,21.5,78.6,21.5h0.1c85,0,156.1-69.2,156.1-154.4c0-41.2-17.8-80-47-109.2C303.8,116.3,265.1,100.2,223.9,100.2
	L223.9,100.2z M314.6,320.9c-3.9,10.9-22.4,20.7-31.3,22c-14.8,2.2-26.2,1.1-55.6-11.6c-46.5-20.1-76.9-67-79.3-70
	c-2.3-3-19-25.2-19-48s11.9-34.1,16.3-38.8c4.2-4.7,9.3-5.9,12.4-5.9c3,0,6.2,0,8.9,0.1c2.8,0.1,6.7-1.1,10.4,8
	c3.9,9.3,13.1,32.1,14.3,34.4c1.2,2.3,2,5,0.4,8.1c-8.9,17.8-18.4,17.1-13.6,25.3c17.9,30.8,35.8,41.5,63.1,55.2
	c4.7,2.3,7.4,2,10.1-1.2c2.7-3,11.6-13.6,14.6-18.2c3-4.7,6.2-3.9,10.4-2.3c4.2,1.5,27.1,12.8,31.7,15.1c4.7,2.3,7.7,3.5,8.9,5.4
	C318.5,300.7,318.5,310.1,314.6,320.9z"/>
</svg>
