<svg height="496pt" viewBox="0 0 496 496" width="496pt" xmlns="http://www.w3.org/2000/svg"><path d="m272 400v64c0 13.28125-10.722656 24-24 24-6.640625 0-12.640625-2.71875-16.960938-7.039062-4.320312-4.320313-7.039062-10.320313-7.039062-16.960938v-64zm0 0" fill="#cf9e76"/><path d="m224 368h48v32h-48zm0 0" fill="#b4dd7f"/><path d="m272 336v32h-48v-32l.558594-2.480469c7.601562 1.601563 15.441406 2.480469 23.441406 2.480469s15.839844-.878906 23.4375-2.480469zm0 0" fill="#e6e9ed"/><path d="m88.078125 98.160156c-.078125-.71875-.078125-1.441406-.078125-2.160156 0-48.640625 39.359375-88 88-88 29.757812 0 56.160156 14.800781 72 37.519531 15.917969-22.640625 42.238281-37.519531 72-37.519531 48.640625 0 88 39.359375 88 88h16c17.679688 0 33.679688 7.199219 45.277344 18.71875 11.523437 11.601562 18.722656 27.601562 18.722656 45.28125 0 35.359375-28.640625 64-64 64h-64c0-61.839844-50.160156-112-112-112s-112 50.160156-112 112h-64c-35.039062 0-63.519531-28.160156-64-63.039062-.402344-27.761719 17.359375-51.761719 43.4375-61.28125 13.042969-4.800782 25.441406-4.480469 36.640625-1.519532zm0 0" fill="#e6e9ed"/><path d="m248 112c61.839844 0 112 50.160156 112 112 0 53.761719-37.921875 98.71875-88.5625 109.519531-7.597656 1.601563-15.4375 2.480469-23.4375 2.480469s-15.839844-.878906-23.441406-2.480469c-50.640625-10.800781-88.558594-55.757812-88.558594-109.519531 0-61.839844 50.160156-112 112-112zm0 0" fill="#ccd1d9"/><path d="m328 224c0 19.199219-6.800781 36.800781-18.082031 50.640625l-11.277344 11.28125c-13.839844 11.277344-31.441406 18.078125-50.640625 18.078125-44.160156 0-80-35.839844-80-80 0-19.199219 6.800781-36.800781 18.078125-50.640625l11.28125-11.28125c13.839844-11.277344 31.441406-18.078125 50.640625-18.078125 44.160156 0 80 35.839844 80 80zm0 0" fill="#69d6f4"/><path d="m112 96h16c0-26.472656 21.527344-48 48-48v-16c-35.289062 0-64 28.710938-64 64zm0 0"/><path d="m424 88h-8.335938c-4.074218-49.199219-45.425781-88-95.664062-88-27.617188 0-53.769531 12.03125-71.898438 32.558594-17.839843-20.375-43.75-32.558594-72.101562-32.558594-50.433594 0-91.816406 39.113281-95.625 88.585938-10.816406-1.3125-21.449219-.152344-31.71875 3.605468-29.992188 10.976563-49.082031 38-48.6484375 68.855469.5507815 39.121094 32.8476565 70.953125 71.9921875 70.953125h24v112h16v-112h16.40625c3.425781 51.527344 39.417969 94.167969 87.59375 107.535156v20.464844h-16v16h16v16h-16v16h16v56c0 17.648438 14.351562 32 32 32s32-14.351562 32-32v-56h16v-16h-16v-16h16v-16h-16v-20.464844c41.925781-11.757812 75.65625-45.933594 85.238281-89.839844l-15.632812-3.40625c-10.335938 47.351563-53.070313 81.710938-101.605469 81.710938-57.34375 0-104-46.65625-104-104s46.65625-104 104-104 104 46.65625 104 104v8h32v112h16v-112h24c39.695312 0 72-32.296875 72-72s-32.304688-72-72-72zm-160 376c0 8.824219-7.175781 16-16 16s-16-7.175781-16-16v-56h32zm0-72h-32v-16h32zm0-49.199219v17.199219h-32v-17.191406c5.246094.703125 10.558594 1.191406 16 1.191406 5.414062 0 10.734375-.480469 16-1.199219zm160-126.800781h-56.265625c-4.136719-62.457031-56.253906-112-119.734375-112-63.464844 0-115.449219 49.558594-119.59375 112h-56.40625c-30.441406 0-55.5625-24.761719-55.992188-55.183594-.335937-23.953125 14.632813-44.992187 38.144532-53.59375 8.597656-3.144531 17.269531-3.863281 26.304687-2.414062.535157 5.878906 1.558594 11.695312 3.15625 17.367187l15.402344-4.34375c-2.007813-7.078125-3.015625-14.425781-3.015625-21.832031 0-44.113281 35.886719-80 80-80 33.207031 0 62.472656 19.984375 74.542969 50.902344l14.902343-5.8125c-2.09375-5.363282-4.664062-10.410156-7.566406-15.1875 15.160156-18.75 37.9375-29.902344 62.121094-29.902344 44.109375 0 80 35.886719 80 80v8h24c30.878906 0 56 25.128906 56 56s-25.121094 56-56 56zm0 0"/><path d="m316.128906 279.6875c12.8125-15.664062 19.871094-35.441406 19.871094-55.6875 0-48.519531-39.480469-88-88-88-20.25 0-40.023438 7.0625-55.6875 19.878906l10.132812 12.378906c12.808594-10.480468 28.992188-16.257812 45.554688-16.257812 39.695312 0 72 32.296875 72 72 0 16.558594-5.777344 32.742188-16.257812 45.542969zm0 0"/><path d="m179.871094 168.3125c-12.816406 15.664062-19.871094 35.441406-19.871094 55.6875 0 48.519531 39.480469 88 88 88 20.246094 0 40.023438-7.0625 55.6875-19.878906l-10.136719-12.378906c-12.808593 10.480468-28.992187 16.257812-45.550781 16.257812-39.695312 0-72-32.296875-72-72 0-16.558594 5.773438-32.742188 16.253906-45.542969zm0 0"/><path d="m96 360h16v16h-16zm0 0"/><path d="m96 392h16v16h-16zm0 0"/><path d="m64 312h16v120h-16zm0 0"/><path d="m64 448h16v16h-16zm0 0"/><path d="m64 480h16v16h-16zm0 0"/><path d="m384 360h16v16h-16zm0 0"/><path d="m384 392h16v16h-16zm0 0"/><path d="m416 312h16v120h-16zm0 0"/><path d="m416 448h16v16h-16zm0 0"/><path d="m416 480h16v16h-16zm0 0"/></svg>