<svg height="496pt" viewBox="0 0 496 496" width="496pt" xmlns="http://www.w3.org/2000/svg"><path d="m120 368h192v32h-192zm0 0" fill="#8cc152"/><path d="m312 272v32h-192v-32zm0 0" fill="#8cc152"/><path d="m312 176h-208v48h-32c-35.039062 0-63.519531-28.160156-64-63.039062-.402344-27.761719 17.359375-51.761719 43.4375-61.28125 13.042969-4.800782 25.441406-4.480469 36.640625-1.519532-.078125-.71875-.078125-1.441406-.078125-2.160156 0-48.640625 39.359375-88 88-88 29.757812 0 56.160156 14.800781 72 37.519531 15.917969-22.640625 42.238281-37.519531 72-37.519531 48.640625 0 88 39.359375 88 88h16c17.679688 0 33.679688 7.199219 45.28125 18.71875 11.519531 11.601562 18.71875 27.601562 18.71875 45.28125 0 35.359375-28.640625 64-64 64h-112zm0 0" fill="#e6e9ed"/><path d="m408 336v32l-18.5625 3.679688c-1.917969 7.519531-4.878906 14.640624-8.71875 21.121093l10.480469 15.757813-22.640625 22.640625-15.757813-10.480469c-6.480469 3.839844-13.601562 6.800781-21.121093 8.722656l-3.679688 18.558594h-16v-48c26.480469 0 48-21.519531 48-48s-21.519531-48-48-48v-48h16l3.679688 18.558594c7.519531 1.921875 14.640624 4.882812 21.121093 8.722656l15.757813-10.480469 22.640625 22.640625-10.480469 15.757813c3.839844 6.480469 6.800781 13.601562 8.71875 21.121093zm0 0" fill="#ffc729"/><path d="m312 304c26.480469 0 48 21.519531 48 48s-21.519531 48-48 48v-32c8.800781 0 16-7.199219 16-16 0-4.398438-1.761719-8.398438-4.71875-11.28125-2.882812-2.957031-6.882812-4.71875-11.28125-4.71875zm0 0" fill="#fcd770"/><g fill="#b4dd7f"><path d="m312 448v40h-208v-88h208zm0 0"/><path d="m312 336v32h-208v-64h208zm0 0"/><path d="m288 176h-184v96h208v-96zm0 0"/></g><path d="m112 96h16c0-26.472656 21.527344-48 48-48v-16c-35.289062 0-64 28.710938-64 64zm0 0"/><path d="m424 88h-8.410156c-4.085938-49.191406-45.359375-88-95.589844-88-27.617188 0-53.769531 12.03125-71.898438 32.558594-17.839843-20.375-43.75-32.558594-72.101562-32.558594-50.425781 0-91.808594 39.113281-95.625 88.574219-10.816406-1.316407-21.449219-.140625-31.71875 3.617187-29.992188 10.96875-49.089844 37.992188-48.6484375 68.847656.5585935 39.128907 32.8476565 70.960938 71.9921875 70.960938h24v48h16v16h-16v80h16v16h-16v104h224v-40h14.558594l4.039062-20.191406c4.785156-1.511719 9.417969-3.441406 13.859375-5.746094l17.132813 11.433594 31.90625-31.894532-11.425782-17.144531c2.304688-4.441406 4.21875-9.074219 5.738282-13.847656l20.191406-4.058594v-45.109375l-20.191406-4.050781c-1.519532-4.78125-3.441406-9.414063-5.738282-13.847656l11.425782-17.144531-31.90625-31.894532-17.132813 11.433594c-4.441406-2.304688-9.074219-4.226562-13.859375-5.746094l-4.039062-20.191406h-14.558594v-16h104c39.695312 0 72-32.304688 72-72s-32.304688-72-72-72zm0 128h-120v48h17.4375l3.417969 17.054688 4.878906 1.242187c6.703125 1.710937 13.097656 4.351563 19 7.871094l4.335937 2.574219 14.480469-9.644532 13.351563 13.351563-9.65625 14.488281 2.585937 4.328125c3.511719 5.894531 6.160157 12.285156 7.863281 18.992187l1.238282 4.886719 17.066406 3.40625v18.890625l-17.054688 3.40625-1.242187 4.886719c-1.703125 6.707031-4.351563 13.097656-7.863281 18.992187l-2.585938 4.328126 9.65625 14.488281-13.351562 13.351562-14.480469-9.648437-4.335937 2.578125c-5.902344 3.519531-12.292969 6.167969-19 7.871093l-4.878907 1.242188-3.425781 17.0625h-1.4375v-32.566406c8.757812-1.257813 17.078125-4.59375 24.421875-9.824219l-9.277344-13.035156c-6.824219 4.859375-14.824219 7.425781-23.144531 7.425781h-8v88h-192v-72h176v-16h-160v-16h184c13.230469 0 24-10.769531 24-24s-10.769531-24-24-24h-16v16h16c4.40625 0 8 3.585938 8 8s-3.59375 8-8 8h-200v-48h198.121094c22.117187 0 40.476562 16.441406 41.796875 37.425781.585937 9.261719-1.957031 18.160157-7.335938 25.71875l13.035157 9.28125c7.535156-10.585937 11.09375-23.042969 10.277343-36-1.863281-29.402343-27.230469-52.425781-57.773437-52.425781h-182.121094v-16h160v-16h-176v-80h176v-16h-192v48h-24c-30.441406 0-55.5625-24.753906-55.992188-55.183594-.335937-23.960937 14.632813-45 38.144532-53.601562 8.597656-3.152344 17.261718-3.855469 26.296875-2.40625.535156 5.878906 1.558593 11.703125 3.160156 17.367187l15.398437-4.351562c-2-7.070313-3.007812-14.410157-3.007812-21.824219 0-44.113281 35.886719-80 80-80 33.207031 0 62.472656 19.984375 74.542969 50.910156l14.90625-5.820312c-2.097657-5.363282-4.664063-10.402344-7.570313-15.1875 15.160156-18.75 37.9375-29.902344 62.121094-29.902344 41.414062 0 75.566406 31.632812 79.589844 72h-31.589844v16h56c30.878906 0 56 25.121094 56 56s-25.121094 56-56 56zm0 0"/><path d="m264 328h16v16h-16zm0 0"/><path d="m232 328h16v16h-16zm0 0"/><path d="m304 168h16v16h-16zm0 0"/><path d="m336 168h16v16h-16zm0 0"/><path d="m368 168h16v16h-16zm0 0"/></svg>