<svg height="512" viewBox="0 0 64 64" width="512" xmlns="http://www.w3.org/2000/svg"><g id="creative"><path d="m49 27h-6c0-5-6-4-6-12a11.358 11.358 0 0 1 .55-3.51 11.986 11.986 0 0 1 23.45 3.51c0 8-6 7-6 12z" fill="#ffde55"/><path d="m61 15c0 8-6 7-6 12h-4c0-5 6-4 6-12a12.229 12.229 0 0 0 -9.99-11.82 10.993 10.993 0 0 1 1.99-.18 12.194 12.194 0 0 1 12 12z" fill="#ffcd00"/><rect fill="#57a4ff" height="6" rx="2" width="16" x="41" y="33"/><rect fill="#57a4ff" height="6" rx="2" width="16" x="41" y="27"/><path d="m57 35v2a2.006 2.006 0 0 1 -2 2h-4a2.006 2.006 0 0 0 2-2v-2a2.006 2.006 0 0 0 -2-2h4a2.006 2.006 0 0 1 2 2z" fill="#006df0"/><path d="m57 29v2a2.006 2.006 0 0 1 -2 2h-4a2.006 2.006 0 0 0 2-2v-2a2.006 2.006 0 0 0 -2-2h4a2.006 2.006 0 0 1 2 2z" fill="#006df0"/><path d="m54 39v2a2.006 2.006 0 0 1 -2 2h-6a2.006 2.006 0 0 1 -2-2v-2z" fill="#00d7df"/><path d="m54 39v2a2.006 2.006 0 0 1 -2 2h-4a2.006 2.006 0 0 0 2-2v-2z" fill="#009698"/><path d="m32.44 47.76a13.086 13.086 0 0 1 -.98 2.38l2.68 3.76-1.12 1.12-3.12 3.12-3.76-2.68a13.086 13.086 0 0 1 -2.38.98l-.76 4.56h-6l-.76-4.56a13.086 13.086 0 0 1 -2.38-.98l-3.76 2.68-4.24-4.24 2.68-3.76a13.086 13.086 0 0 1 -.98-2.38l-4.56-.76v-6l4.56-.76a16.936 16.936 0 0 1 .98-2.38l-2.68-3.76 4.24-4.24 3.76 2.68a13.086 13.086 0 0 1 2.38-.98l.76-4.56h6l.76 4.56a13.086 13.086 0 0 1 2.38.98l3.76-2.68 4.24 4.24-2.68 3.76a13.086 13.086 0 0 1 .98 2.38l4.56.76v6z" fill="#c0ab91"/><path d="m20 36c2.59 0 5 1.41 5 4 0 4-3 4-3 6h-4c0-2-3-2-3-6 0-2.59 2.41-4 5-4z" fill="#ffde55"/><path d="m25 40c0 4-3 4-3 6h-4c0-2 3-2 3-6a3.88 3.88 0 0 0 -3-3.7 6.54 6.54 0 0 1 2-.3c2.59 0 5 1.41 5 4z" fill="#ffcd00"/><path d="m49 2a13.17 13.17 0 0 0 -13 13 9.669 9.669 0 0 0 3.86 8.34 5.107 5.107 0 0 1 2.06 2.87 3 3 0 0 0 -1.92 2.79v2a2.974 2.974 0 0 0 .78 2 2.974 2.974 0 0 0 -.78 2v2a3.009 3.009 0 0 0 3 3v1a3.009 3.009 0 0 0 3 3h6a3.009 3.009 0 0 0 3-3v-1a3.009 3.009 0 0 0 3-3v-2a2.974 2.974 0 0 0 -.78-2 2.974 2.974 0 0 0 .78-2v-2a3 3 0 0 0 -1.92-2.79 5.107 5.107 0 0 1 2.06-2.87 9.669 9.669 0 0 0 3.86-8.34 13.17 13.17 0 0 0 -13-13zm4 39a1 1 0 0 1 -1 1h-6a1 1 0 0 1 -1-1v-1h8zm3-4a1 1 0 0 1 -1 1h-12a1 1 0 0 1 -1-1v-2a1 1 0 0 1 1-1h12a1 1 0 0 1 1 1zm0-6a1 1 0 0 1 -1 1h-12a1 1 0 0 1 -1-1v-2a1 1 0 0 1 1-1h12a1 1 0 0 1 1 1zm.81-9.15c-1.19 1.06-2.42 2.15-2.73 4.15h-4.08v-10.5l2.91-2.18 3.38 3.39 1.42-1.42-4-4a1 1 0 0 0 -1.31-.09l-3.4 2.55-3.4-2.55a1 1 0 0 0 -1.31.09l-4 4 1.42 1.42 3.38-3.39 2.91 2.18v10.5h-4.08c-.31-2-1.54-3.09-2.73-4.15a7.8 7.8 0 0 1 -3.19-6.85 11 11 0 0 1 22 0 7.8 7.8 0 0 1 -3.19 6.85z"/><path d="m37.16 40.01-3.95-.66a13.338 13.338 0 0 0 -.59-1.4l2.34-3.27a1.015 1.015 0 0 0 -.11-1.29l-4.24-4.24a1.015 1.015 0 0 0 -1.29-.11l-3.27 2.34a13.338 13.338 0 0 0 -1.4-.59l-.66-3.95a1 1 0 0 0 -.99-.84h-6a1 1 0 0 0 -.99.84l-.66 3.95a13.338 13.338 0 0 0 -1.4.59l-3.27-2.34a1.015 1.015 0 0 0 -1.29.11l-4.24 4.24a1.015 1.015 0 0 0 -.11 1.29l2.35 3.28a13.47 13.47 0 0 0 -.58 1.39l-3.97.66a1 1 0 0 0 -.84.99v6a1 1 0 0 0 .84.99l3.95.66a13.338 13.338 0 0 0 .59 1.4l-2.34 3.27a1.015 1.015 0 0 0 .11 1.29l4.24 4.24a1.015 1.015 0 0 0 1.29.11l3.27-2.34a13.338 13.338 0 0 0 1.4.59l.66 3.95a1 1 0 0 0 .99.84h6a1 1 0 0 0 .99-.84l.66-3.95a13.338 13.338 0 0 0 1.4-.59l3.27 2.34a1.015 1.015 0 0 0 1.29-.11l4.24-4.24a1.015 1.015 0 0 0 .11-1.29l-2.34-3.27a13.338 13.338 0 0 0 .59-1.4l3.95-.66a1 1 0 0 0 .84-.99v-6a1 1 0 0 0 -.84-.99zm-1.16 6.14-3.72.62a1.012 1.012 0 0 0 -.79.7 12.564 12.564 0 0 1 -.91 2.2 1 1 0 0 0 .06 1.05l2.2 3.07-3.05 3.05-3.07-2.2a1 1 0 0 0 -1.05-.06 12.564 12.564 0 0 1 -2.2.91 1.012 1.012 0 0 0 -.7.79l-.62 3.72h-4.3l-.62-3.72a1.012 1.012 0 0 0 -.7-.79 12.564 12.564 0 0 1 -2.2-.91 1 1 0 0 0 -1.05.06l-3.07 2.2-3.05-3.05 2.2-3.07a1 1 0 0 0 .06-1.05 12.564 12.564 0 0 1 -.91-2.2 1.012 1.012 0 0 0 -.79-.7l-3.72-.62v-4.3l3.72-.62a1 1 0 0 0 .78-.65 14.275 14.275 0 0 1 .95-2.29 1.014 1.014 0 0 0 -.09-1.01l-2.2-3.07 3.05-3.05 3.07 2.2a1 1 0 0 0 1.05.06 12.564 12.564 0 0 1 2.2-.91 1.012 1.012 0 0 0 .7-.79l.62-3.72h4.3l.62 3.72a1.012 1.012 0 0 0 .7.79 12.564 12.564 0 0 1 2.2.91 1 1 0 0 0 1.05-.06l3.07-2.2 3.05 3.05-2.2 3.07a1 1 0 0 0 -.06 1.05 12.564 12.564 0 0 1 .91 2.2 1.012 1.012 0 0 0 .79.7l3.72.62z"/><path d="m21 18a6.006 6.006 0 0 1 6-6h8v-2h-8a8.009 8.009 0 0 0 -8 8v2h2z"/><path d="m19 22h2v2h-2z"/><path d="m48 46h2v2h-2z"/><path d="m42 56h-7v2h7a8.009 8.009 0 0 0 8-8h-2a6.006 6.006 0 0 1 -6 6z"/><path d="m20 35c-2.98 0-6 1.72-6 5a5.929 5.929 0 0 0 2.2 4.85c.59.56.8.79.8 1.15a1 1 0 0 0 1 1h4a1 1 0 0 0 1-1c0-.36.21-.59.8-1.15a5.929 5.929 0 0 0 2.2-4.85c0-3.28-3.02-5-6-5zm2.43 8.39a4.593 4.593 0 0 0 -1.25 1.61h-2.36a4.593 4.593 0 0 0 -1.25-1.61 3.98 3.98 0 0 1 -1.57-3.39c0-2.06 2.07-3 4-3s4 .94 4 3a3.98 3.98 0 0 1 -1.57 3.39z"/><path d="m17 48h6v2h-6z"/><path d="m17 51h6v2h-6z"/><path d="m48 9h2v2h-2z"/><path d="m19 40h2v2h-2z"/></g></svg>