<svg height="496pt" viewBox="0 0 496.00718 496" width="496pt" xmlns="http://www.w3.org/2000/svg"><path d="m88.085938 362.164062c-.078126-.71875-.078126-1.441406-.078126-2.160156 0-27.359375 12.480469-51.761718 32-67.921875v107.921875h256v-107.921875c19.519532 16.160157 32 40.5625 32 67.921875h16c35.359376 0 64 28.640625 64 64 0 17.679688-7.199218 33.679688-18.71875 45.28125-11.601562 11.519532-27.601562 18.71875-45.28125 18.71875h-352c-35.039062 0-63.519531-28.160156-64-63.039062-.402343-27.761719 17.359376-51.761719 43.4375-61.28125 13.042969-4.800782 25.441407-4.480469 36.640626-1.519532zm0 0" fill="#e6e9ed"/><path d="m376.007812 292.082031v107.921875h-128v-120l40 24 16-56 .960938-3.359375 47.4375 12.960938c13.921875 3.757812 23.601562 16.398437 23.601562 30.878906zm0 0" fill="#b4dd7f"/><path d="m248.007812 280.003906v120h-128v-111.519531c0-14.480469 9.679688-27.121094 23.597657-30.878906l47.441406-12.960938.960937 3.359375 16 56zm0 0" fill="#b4dd7f"/><path d="m288.007812 240.003906 16.960938 4.640625-.960938 3.359375-16 56-40-24zm0 0" fill="#fcd770"/><path d="m208.007812 240.003906 40 40-40 24-16-56-.960937-3.359375zm0 0" fill="#fcd770"/><path d="m344.007812 104.003906v48c0-17.679687-14.320312-32-32-32v-8l-1.359374 1.359375c-14.480469 14.480469-34.160157 22.640625-54.640626 22.640625h-32l-.082031-.398437c-2.636719.238281-5.277343.398437-7.917969.398437h-32v-16c-17.679687 0-32 14.320313-32 32v-48c0-26.558594 10.71875-50.558594 28.078126-67.921875 17.359374-17.359375 41.359374-28.078125 67.921874-28.078125 53.039063 0 96 42.960938 96 96zm0 0" fill="#b27946"/><g fill="#f0d0b4"><path d="m248.007812 232.003906c15.121094 0 29.039063-5.28125 40-14.082031v22.082031l-40 40-40-40v-22.082031c20.398438 11.761719 29.917969 14.082031 40 14.082031zm0 0"/><path d="m344.007812 152.003906c0 17.679688-14.320312 32-32 32h-2c1.28125-5.121094 2-10.480468 2-16v-48c17.679688 0 32 14.320313 32 32zm0 0"/><path d="m312.007812 120.003906v48c0 5.519532-.71875 10.878906-2 16-3.519531 13.601563-11.359374 25.441406-22 33.917969-10.960937 8.800781-24.878906 14.082031-40 14.082031-10.082031 0-19.601562-2.320312-40-14.082031-1.839843-1.4375-3.601562-2.957031-5.28125-4.636719-8-8.082031-13.917968-18.242187-16.800781-29.679687-1.277343-4.960938-1.917969-10.242188-1.917969-15.601563v-32h32c2.640626 0 5.28125-.160156 7.917969-.398437l.082031.398437h32c20.480469 0 40.160157-8.160156 54.640626-22.640625l1.359374-1.359375zm0 0"/><path d="m184.007812 184.003906c-17.679687 0-32-14.320312-32-32 0-17.679687 14.320313-32 32-32v48c0 5.359375.640626 10.640625 1.917969 15.601563zm0 0"/></g><path d="m424.007812 352.003906h-8.335937c-2.015625-24.398437-13.328125-46.953125-31.664063-63.398437v-.152344c0-17.992187-12.121093-33.859375-29.472656-38.59375l-58.527344-15.96875v-12.375c8.96875-8.054687 15.894532-18.296875 19.945313-29.910156 20.183594-2.019531 36.054687-18.898438 36.054687-39.601563v-48c0-57.34375-46.65625-103.99999975-104-103.99999975s-104 46.65624975-104 103.99999975v48c0 20.703125 15.871094 37.582032 36.054688 39.601563 4.046875 11.613281 10.976562 21.855469 19.945312 29.910156v12.375l-58.527343 15.960937c-17.351563 4.734376-29.472657 20.609376-29.472657 38.601563v.183594c-18.472656 16.574219-29.695312 39.351562-31.59375 63.957031-10.824218-1.316406-21.472656-.167969-31.757812 3.601562-29.992188 10.976563-49.082031 38-48.6484375 68.855469.5585935 39.121094 32.8554685 70.953125 71.9999995 70.953125h352c39.695313 0 72-32.296875 72-72s-32.304687-72-72-72zm-133.625-103.0625 4.671876 1.269532-11.878907 41.5625-22.273437-13.363282zm29.289063-74.304687c.199219-2.191407.335937-4.394531.335937-6.632813v-38.527344c9.289063 3.3125 16 12.109376 16 22.527344 0 10.535156-6.871093 19.414063-16.335937 22.632813zm-71.664063-158.632813c48.519532 0 88 39.480469 88 88v16.207032c-4.671874-3.535157-10.054687-6.183594-16-7.390626v-8.816406h-16v4.601563c-10.335937 9.949219-23.214843 16.292969-37.167968 18.476562 3.296875-2.460937 6.496094-5.09375 9.457031-8.054687l1.367187-1.375-11.328124-11.296875-1.359376 1.367187c-7.546874 7.535156-16.546874 13.050782-26.328124 16.433594 1.933593-1.625 3.839843-3.3125 5.648437-5.128906l1.367187-1.375-11.328124-11.296875-1.359376 1.367187c-11.175781 11.167969-25.503906 18.007813-40.976562 19.785156v-23.503906h-16v8.808594c-5.945312 1.214844-11.328125 3.855469-16 7.390625v-16.199219c.007812-48.519531 39.488281-88 88.007812-88zm-88 136c0-10.417968 6.710938-19.214844 16-22.527344v38.527344c0 2.238282.136719 4.441406.335938 6.632813-9.464844-3.21875-16.335938-12.097657-16.335938-22.632813zm32 16v-24.390625c8.320313-.769531 16.382813-2.746093 24-5.824219v6.214844c14.175782 0 27.824219-3.449218 40-9.929687v9.929687c17.382813 0 33.953126-5.199218 48-14.816406v38.816406c0 30.871094-25.121093 56-56 56-30.878906 0-56-25.128906-56-56zm56 72c11.503907 0 22.34375-2.777344 32-7.601562v4.289062l-32 32-32-32v-4.289062c9.65625 4.824218 20.496094 7.601562 32 7.601562zm-42.375 8.9375 29.46875 29.46875-22.269531 13.363282-11.878906-41.5625zm-77.625 39.511719c0-10.800781 7.269532-20.320313 17.679688-23.160156l39.832031-10.867188 17.65625 61.800781 36.832031-22.09375v97.871094h-112zm296 191.550781h-352c-30.441406 0-55.5625-24.761718-55.992187-55.183594-.335937-23.953124 14.632813-44.992187 38.144531-53.59375 8.597656-3.144531 17.269532-3.847656 26.304688-2.40625.535156 5.878907 1.558594 11.695313 3.160156 17.359376l15.398438-4.34375c-2.007813-7.082032-3.015626-14.425782-3.015626-21.832032 0-17.511718 5.71875-34.214844 16-47.921875v95.921875h240v-16h-96v-97.871094l36.832032 22.09375 17.65625-61.800781 39.832031 10.867188c10.40625 2.832031 17.679687 12.359375 17.679687 23.160156v87.550781h16v-63.921875c10.28125 13.699219 16 30.402344 16 47.921875v8h24c30.878907 0 56 25.128906 56 56s-25.121093 56-56 56zm0 0"/><path d="m368.007812 392.003906h16v16h-16zm0 0"/><path d="m400.007812 392.003906h16v16h-16zm0 0"/><path d="m56.007812 440.003906h16v16h-16zm0 0"/><path d="m88.007812 440.003906h16v16h-16zm0 0"/><path d="m120.007812 440.003906h16v16h-16zm0 0"/><path d="m.0078125 72.003906h15.9999995v16h-15.9999995zm0 0"/><path d="m56.007812.00390625h16v15.99999975h-16zm0 0"/><path d="m56.007812 32.003906h16v16h-16zm0 0"/><path d="m56.007812 200.003906h88v-16h-72v-120h-16v80h-40v-40h-15.9999995v56h55.9999995zm0 0"/><path d="m480.007812 72.003906h16v16h-16zm0 0"/><path d="m480.007812 144.003906h-40v-80h-16v120h-72v16h88v-40h56v-56h-16zm0 0"/><path d="m424.007812.00390625h16v15.99999975h-16zm0 0"/><path d="m424.007812 32.003906h16v16h-16zm0 0"/></svg>