<svg height="496pt" viewBox="0 0 496 496" width="496pt" xmlns="http://www.w3.org/2000/svg"><path d="m88.078125 98.160156c-.078125-.71875-.078125-1.441406-.078125-2.160156 0-48.640625 39.359375-88 88-88 29.757812 0 56.160156 14.800781 72 37.519531 15.917969-22.640625 42.238281-37.519531 72-37.519531 48.640625 0 88 39.359375 88 88h16c35.359375 0 64 28.640625 64 64 0 17.679688-7.199219 33.679688-18.71875 45.28125-11.601562 11.519531-27.601562 18.71875-45.28125 18.71875h-352c-35.039062 0-63.519531-28.160156-64-63.039062-.402344-27.761719 17.359375-51.761719 43.4375-61.28125 13.042969-4.800782 25.441406-4.480469 36.640625-1.519532zm0 0" fill="#e6e9ed"/><path d="m254.71875 337.121094c-17.28125-24.882813-46.078125-41.121094-78.71875-41.121094h232v160h-160l-.242188-.160156c2.480469-2.800782 4.882813-5.839844 6.960938-8.960938 10.960938-15.519531 17.28125-34.480468 17.28125-54.878906s-6.320312-39.359375-17.28125-54.878906zm0 0" fill="#e6e9ed"/><path d="m176 224h232v72h-232zm0 0" fill="#b4dd7f"/><path d="m254.71875 337.121094c-17.28125-24.882813-46.078125-41.121094-78.71875-41.121094s-61.441406 16.238281-78.71875 41.121094c-10.960938 15.519531-17.28125 34.480468-17.28125 54.878906s6.320312 39.359375 17.28125 54.878906c17.277344 24.882813 46.078125 41.121094 78.71875 41.121094 28.558594 0 54.160156-12.398438 71.757812-32.160156 2.480469-2.800782 4.882813-5.839844 6.960938-8.960938 10.960938-15.519531 17.28125-34.480468 17.28125-54.878906s-6.320312-39.359375-17.28125-54.878906zm0 0" fill="#69d6f4"/><path d="m176 32c-35.289062 0-64 28.710938-64 64h16c0-26.472656 21.527344-48 48-48zm0 0"/><path d="m424 88h-8.410156c-4.085938-49.199219-45.351563-88-95.589844-88-27.617188 0-53.769531 12.03125-71.898438 32.558594-17.839843-20.375-43.75-32.558594-72.101562-32.558594-50.433594 0-91.816406 39.113281-95.625 88.585938-10.816406-1.3125-21.457031-.152344-31.726562 3.597656-29.984376 10.96875-49.082032 38-48.6406255 68.855468.5585935 39.128907 32.8554685 70.960938 71.9921875 70.960938h64v-16h-64c-30.441406 0-55.550781-24.761719-55.992188-55.175781-.335937-23.96875 14.632813-45.007813 38.136719-53.601563 8.605469-3.144531 17.269531-3.855468 26.3125-2.40625.535157 5.878906 1.558594 11.695313 3.167969 17.367188l15.390625-4.34375c-2-7.085938-3.015625-14.433594-3.015625-21.839844 0-44.113281 35.886719-80 80-80 33.199219 0 62.472656 19.984375 74.542969 50.910156l14.90625-5.832031c-2.097657-5.351563-4.664063-10.398437-7.5625-15.175781 15.152343-18.75 37.929687-29.902344 62.113281-29.902344 41.40625 0 75.566406 31.632812 79.589844 72h-31.589844v16h56c30.871094 0 56 25.128906 56 56s-25.128906 56-56 56h-256v48h16v-32h216v216h-136.503906c10.398437-16.183594 16.503906-35.375 16.503906-56 0-29.832031-12.832031-58.257812-35.199219-78l-10.59375 12c3.375 2.976562 6.390625 6.257812 9.242188 9.664062-5.851563 4.214844-14.914063 10.0625-26.152344 14.992188-6.503906-20.097656-16.464844-36.160156-24.234375-46.65625h190.9375v-16h-208c-57.34375 0-104 46.65625-104 104s46.65625 104 104 104c29.398438 0 55.933594-12.320312 74.871094-32h165.128906v-232h8c39.703125 0 72-32.296875 72-72s-32.296875-72-72-72zm-171.390625 260.832031c7.351563 13.046875 11.390625 27.878907 11.390625 43.167969 0 15.6875-4.175781 30.398438-11.402344 43.167969-6.988281-5.054688-17.8125-11.929688-31.261718-17.527344 1.625-8.105469 2.664062-16.640625 2.664062-25.640625s-1.039062-17.535156-2.664062-25.640625c13.457031-5.597656 24.28125-12.472656 31.273437-17.527344zm-76.609375 59.167969c-10.664062 0-20.761719 1.734375-30.082031 4.351562-1.191407-6.496093-1.917969-13.28125-1.917969-20.351562 0-7.0625.734375-13.847656 1.933594-20.34375 9.320312 2.617188 19.410156 4.34375 30.066406 4.34375 10.664062 0 20.757812-1.734375 30.078125-4.351562 1.191406 6.496093 1.921875 13.28125 1.921875 20.351562 0 7.0625-.738281 13.847656-1.9375 20.34375-9.320312-2.617188-19.40625-4.34375-30.0625-4.34375zm26.175781 19.910156c-7.144531 22.203125-19.144531 39.210938-26.191406 47.9375-7.066406-8.710937-19.058594-25.6875-26.191406-47.925781 8.183593-2.363281 17-3.921875 26.207031-3.921875 9.199219 0 18.007812 1.558594 26.175781 3.910156zm-26.175781-67.910156c-9.199219 0-18.007812-1.558594-26.175781-3.910156 7.144531-22.203125 19.144531-39.210938 26.191406-47.9375 7.0625 8.710937 19.054687 25.6875 26.191406 47.925781-8.183593 2.363281-17 3.921875-26.207031 3.921875zm-18.503906-54.007812c-7.527344 10.496093-16.679688 25.785156-22.785156 44.664062-11.273438-4.945312-20.351563-10.808594-26.199219-15.03125 12.367187-14.777344 29.480469-25.441406 48.984375-29.632812zm-58.097656 42.839843c6.992187 5.054688 17.816406 11.929688 31.265624 17.527344-1.625 8.105469-2.664062 16.640625-2.664062 25.640625s1.039062 17.535156 2.664062 25.640625c-13.457031 5.597656-24.273437 12.472656-31.265624 17.527344-7.222657-12.769531-11.398438-27.480469-11.398438-43.167969s4.175781-30.398438 11.398438-43.167969zm9.113281 99.542969c5.847656-4.214844 14.925781-10.085938 26.199219-15.03125 6.113281 18.878906 15.257812 34.167969 22.785156 44.664062-19.503906-4.191406-36.617188-14.855468-48.984375-29.632812zm85.992187 29.632812c7.527344-10.496093 16.679688-25.785156 22.785156-44.664062 11.269532 4.945312 20.351563 10.808594 26.199219 15.03125-12.367187 14.777344-29.480469 25.441406-48.984375 29.632812zm0 0"/><path d="m200 248h16v16h-16zm0 0"/><path d="m232 248h16v16h-16zm0 0"/><path d="m264 248h16v16h-16zm0 0"/><path d="m296 320h88v16h-88zm0 0"/><path d="m296 352h88v16h-88zm0 0"/><path d="m296 384h88v16h-88zm0 0"/><path d="m296 416h88v16h-88zm0 0"/><path d="m336 88h16v16h-16zm0 0"/><path d="m304 88h16v16h-16zm0 0"/><path d="m272 88h16v16h-16zm0 0"/></svg>