<svg id="Layer_35" enable-background="new 0 0 64 64" height="512" viewBox="0 0 64 64" width="512" xmlns="http://www.w3.org/2000/svg"><g fill="#f0bc5e"><path d="m12.714 42-.714 10 2 2 2-2-.714-10z"/><path d="m60 38h-22c-1.654 0-3 1.346-3 3v14c0 1.654 1.346 3 3 3h22c1.654 0 3-1.346 3-3v-14c0-1.654-1.346-3-3-3zm-18 11c-1.105 0-2-.895-2-2s.895-2 2-2 2 .895 2 2-.895 2-2 2zm7 4c-1.105 0-2-.895-2-2s.895-2 2-2 2 .895 2 2-.895 2-2 2zm7-6c-1.105 0-2-.895-2-2s.895-2 2-2 2 .895 2 2-.895 2-2 2z"/><path d="m26 13h8v9h-8z"/></g><path d="m56 42c-1.654 0-3 1.346-3 3 0 .38.078.741.208 1.076l-2.722 2.333c-.44-.253-.943-.409-1.486-.409-.746 0-1.421.284-1.946.736l-2.107-1.204c.03-.173.053-.35.053-.532 0-1.654-1.346-3-3-3s-3 1.346-3 3 1.346 3 3 3c.746 0 1.421-.284 1.946-.736l2.107 1.204c-.03.173-.053.35-.053.532 0 1.654 1.346 3 3 3s3-1.346 3-3c0-.38-.078-.741-.208-1.076l2.723-2.333c.439.253.942.409 1.485.409 1.654 0 3-1.346 3-3s-1.346-3-3-3zm-14 6c-.552 0-1-.448-1-1s.448-1 1-1 1 .448 1 1-.448 1-1 1zm7 4c-.552 0-1-.448-1-1s.448-1 1-1 1 .448 1 1-.448 1-1 1zm7-6c-.552 0-1-.448-1-1s.448-1 1-1 1 .448 1 1-.448 1-1 1z"/><path d="m14 9c1.103 0 2 .897 2 2h2c0-1.859-1.279-3.411-3-3.858v-2.142h-2v2h-3v4c0 2.206 1.794 4 4 4 1.103 0 2 .897 2 2v2h-2c-1.103 0-2-.897-2-2h-2c0 1.859 1.279 3.411 3 3.858v2.142h2v-2h3v-4c0-2.206-1.794-4-4-4-1.103 0-2-.897-2-2v-2z"/><path d="m40 19h-4v12h18v-18h-6v2h-4v2h-4zm-2 2h2v8h-2zm12-6h2v14h-2zm-2 2v12h-2v-12zm-4 2v10h-2v-10z"/><path d="m55 35c1.654 0 3-1.346 3-3v-20c0-1.654-1.346-3-3-3h-29.021c-2.009-4.811-6.731-8-11.979-8-7.168 0-13 5.832-13 13s5.832 13 13 13c2.92 0 5.728-1.003 8-2.786v7.786c0 1.654 1.346 3 3 3h1v4c0 1.103-.897 2-2 2h-5.111c1.301-1.272 2.111-3.042 2.111-5 0-3.859-3.141-7-7-7s-7 3.141-7 7c0 2.123.954 4.025 2.452 5.31-4.839 1.154-8.452 5.503-8.452 10.69v11h21v-11.913c0-.726.518-1.347 1.231-1.477l3.199-.582c3.807-.691 6.57-4.002 6.57-7.87v-6.158zm-41-10c-6.065 0-11-4.935-11-11s4.935-11 11-11c4.237 0 8.067 2.458 9.887 6.22-1.104.443-1.887 1.52-1.887 2.78v9.513c-2.081 2.214-4.971 3.487-8 3.487zm-5 11c0-2.757 2.243-5 5-5s5 2.243 5 5-2.243 5-5 5-5-2.243-5-5zm22 5.158c0 2.901-2.072 5.384-4.927 5.903l-3.199.581c-1.665.303-2.874 1.752-2.874 3.445v9.913h-12v-13h-2v13h-3v-9c0-4.963 4.037-9 9-9h12c2.206 0 4-1.794 4-4v-8.5c0-.827.673-1.5 1.5-1.5s1.5.673 1.5 1.5zm-1.5-14.158c-1.93 0-3.5 1.57-3.5 3.5v2.5h-1c-.552 0-1-.448-1-1v-20c0-.552.448-1 1-1h30c.552 0 1 .448 1 1v20c0 .552-.448 1-1 1h-22v-2.5c0-1.93-1.57-3.5-3.5-3.5z"/><path d="m26 13h2v2h-2z"/><path d="m30 13h2v2h-2z"/><path d="m34 13h2v2h-2z"/><path d="m26 17h8v2h-8z"/><path d="m26 21h8v2h-8z"/></svg>