<svg height="496pt" viewBox="0 0 495 496" width="496pt" xmlns="http://www.w3.org/2000/svg"><path d="m128.5 312v56h-16l-6.71875-26.800781c-9.679688-2.398438-18.800781-6.160157-27.121094-11.277344l-23.679687 14.238281-22.640625-22.640625 14.238281-23.679687c-5.117187-8.320313-8.878906-17.441406-11.277344-27.121094l-26.800781-6.71875v-32l26.800781-6.71875c2.398438-9.679688 6.160157-18.800781 11.277344-27.121094l-14.238281-23.679687 22.640625-22.640625 23.679687 14.238281c8.320313-5.117187 17.441406-8.878906 27.121094-11.277344l6.71875-26.800781h16v56c-35.359375 0-64 28.640625-64 64s28.640625 64 64 64zm0 0" fill="#ffc729"/><path d="m128.5 280v32c-35.359375 0-64-28.640625-64-64s28.640625-64 64-64v32c-17.679688 0-32 14.320312-32 32s14.320312 32 32 32zm0 0" fill="#fcd770"/><path d="m400.5 424v32c0 17.679688-14.320312 32-32 32h-208c-17.679688 0-32-14.320312-32-32v-32zm0 0" fill="#838f9b"/><path d="m400.5 40v32h-272v-32c0-17.679688 14.320312-32 32-32h208c17.679688 0 32 14.320312 32 32zm0 0" fill="#838f9b"/><path d="m384.5 184c-15.679688 0-29.839844 6.480469-40 16.878906-10.160156-10.398437-24.320312-16.878906-40-16.878906-30.960938 0-56 25.039062-56 56 0 .238281 0 .558594.078125.800781-5.199219-1.039062-10.796875-1.121093-16.476563.078125-15.28125 3.121094-27.679687 15.519532-30.800781 30.882813-5.121093 25.679687 14.398438 48.238281 39.199219 48.238281h176c-8.800781 0-16 7.199219-16 16v88h-272v-352h272v112l-.558594 2.160156c-4.882812-1.441406-10.082031-2.160156-15.441406-2.160156zm0 0" fill="#69d6f4"/><path d="m448.5 240c23.359375 0 42.078125 20.078125 39.839844 43.921875-2 20.796875-20.640625 36.078125-41.519532 36.078125h-206.320312c-24.800781 0-44.320312-22.558594-39.199219-48.238281 3.121094-15.363281 15.519531-27.761719 30.800781-30.882813 5.679688-1.199218 11.277344-1.117187 16.476563-.078125-.078125-.242187-.078125-.5625-.078125-.800781 0-30.960938 25.039062-56 56-56 15.679688 0 29.839844 6.480469 40 16.878906 10.160156-10.398437 24.320312-16.878906 40-16.878906 5.359375 0 10.558594.71875 15.441406 2.160156 23.4375 6.640625 40.558594 28.238282 40.558594 53.839844 0 .238281 0 .558594-.078125.800781 2.636719-.480469 5.359375-.800781 8.078125-.800781zm0 0" fill="#e6e9ed"/><path d="m304.5 208c-17.648438 0-32 14.351562-32 32h16c0-8.824219 7.175781-16 16-16zm0 0"/><path d="m484.019531 247.71875c-9.191406-10.109375-22.335937-16.085938-36.015625-15.710938-2.917968-23.328124-18.441406-42.785156-39.503906-51.335937v-140.671875c0-22.054688-17.945312-40-40-40h-208c-22.054688 0-40 17.945312-40 40v80h-14.246094l-7.082031 28.3125c-7.097656 2.078125-13.9375 4.917969-20.425781 8.472656l-25.023438-15.023437-31.460937 31.460937 15.015625 25.023438c-3.554688 6.496094-6.386719 13.339844-8.472656 20.425781l-28.304688 7.082031v44.492188l28.3125 7.082031c2.078125 7.085937 4.917969 13.929687 8.472656 20.425781l-15.023437 25.023438 31.460937 31.460937 25.023438-15.015625c6.496094 3.554688 13.339844 6.386719 20.425781 8.472656l7.082031 28.304688h14.246094v80c0 22.054688 17.945312 40 40 40h208c22.054688 0 40-17.945312 40-40v-120c0-4.40625 3.59375-8 8-8h30.28125c25.4375 0 47.175781-19.023438 49.496094-43.3125 1.285156-13.511719-3.175782-26.992188-12.257813-36.96875zm-323.519531-231.71875h208c13.230469 0 24 10.769531 24 24v24h-256v-24c0-13.230469 10.769531-24 24-24zm-40 254.527344c-9.289062-3.3125-16-12.113282-16-22.527344s6.710938-19.214844 16-22.527344zm0-61.71875c-18.230469 3.71875-32 19.871094-32 39.191406s13.769531 35.472656 32 39.191406v16.167969c-27.097656-3.902344-48-27.207031-48-55.359375s20.902344-51.457031 48-55.359375zm-1.753906 151.191406-6.359375-25.449219-4.695313-1.144531c-8.777344-2.132812-17.136718-5.597656-24.847656-10.300781l-4.128906-2.519531-22.503906 13.503906-13.789063-13.792969 13.503906-22.503906-2.515625-4.136719c-4.703125-7.71875-8.175781-16.089844-10.300781-24.847656l-1.144531-4.695313-25.464844-6.359375v-19.507812l25.449219-6.359375 1.144531-4.695313c2.125-8.765625 5.597656-17.128906 10.300781-24.847656l2.511719-4.136719-13.503906-22.503906 13.792968-13.792969 22.503907 13.503906 4.128906-2.519531c7.710937-4.703125 16.070313-8.167969 24.847656-10.300781l4.695313-1.144531 6.375-25.449219h1.753906v40.472656c-35.945312 4-64 34.535156-64 71.527344s28.054688 67.527344 64 71.527344v40.472656zm249.753906 120h-208c-13.230469 0-24-10.769531-24-24v-24h256v24c0 13.230469-10.769531 24-24 24zm78.28125-168h-30.28125c-13.230469 0-24 10.769531-24 24v80h-256v-336h256v96.496094c-2.625-.328125-5.289062-.496094-8-.496094-14.734375 0-28.679688 4.945312-40 14.054688-11.320312-9.109376-25.265625-14.054688-40-14.054688-32.585938 0-59.550781 24.472656-63.503906 56-3.457032.054688-7 .304688-10.503906 1.023438-18.449219 3.800781-33.320313 18.71875-37 37.136718-2.878907 14.398438.710937 29.070313 9.871093 40.246094 9.160157 11.1875 22.695313 17.59375 37.136719 17.59375h136v-16h-136c-9.632812 0-18.65625-4.28125-24.769531-11.734375-6.199219-7.5625-8.527344-17.144531-6.558594-26.96875 2.441406-12.191406 12.304687-22.082031 24.535156-24.601563 4.457031-.902343 8.914063-.925781 13.234375-.046874l9.734375 1.984374-.144531-9.9375-.03125-.695312c0-26.472656 21.527344-48 48-48 12.992188 0 25.167969 5.128906 34.289062 14.441406l5.710938 5.839844 5.710938-5.839844c9.121093-9.3125 21.296874-14.441406 34.289062-14.441406 26.472656 0 48 21.527344 48 47.878906l-.183594 10.746094 9.734375-1.976562c10.96875-2.222657 22.632813 1.574218 30.136719 9.832031 6.144531 6.75 9.039062 15.519531 8.167969 24.6875-1.550781 16.167969-16.296875 28.832031-33.574219 28.832031zm0 0"/><path d="m368.5 264h16v16h-16zm0 0"/><path d="m336.5 264h16v16h-16zm0 0"/><path d="m304.5 264h16v16h-16zm0 0"/><path d="m216.5 448h96v16h-96zm0 0"/></svg>