<svg id="Layer_35" enable-background="new 0 0 64 64" height="512" viewBox="0 0 64 64" width="512" xmlns="http://www.w3.org/2000/svg"><path d="m15 5v25.08c.327-.047.66-.08 1-.08 3.17 0 5.845 2.109 6.706 5h36.294v-30z" fill="#f0bc5e"/><path d="m47 44h12v9h-10v-5h-2z" fill="#f0bc5e"/><path d="m60 1h-46c-1.654 0-3 1.346-3 3v26.765c-1.826 1.467-3 3.715-3 6.235 0 2.78 1.427 5.231 3.585 6.665-6.123 1.89-10.585 7.6-10.585 14.335v5h30v-5c0-1.387-.204-2.725-.558-4h5.339l.603-2.416 2.136 1.281 5.346-5.347-1.28-2.135 2.414-.602v-5.781h15c1.654 0 3-1.346 3-3v-32c0-1.654-1.346-3-3-3zm-50 36c0-3.309 2.691-6 6-6s6 2.691 6 6-2.691 6-6 6-6-2.691-6-6zm6 13c2.426 0 4.45-1.738 4.902-4.033.257.105.505.225.754.346l-5.656 13.155-5.656-13.155c.249-.121.497-.241.754-.346.452 2.295 2.476 4.033 4.902 4.033zm2.964-4.646c-.178 1.486-1.431 2.646-2.964 2.646s-2.786-1.16-2.964-2.646c.954-.224 1.943-.354 2.964-.354s2.01.13 2.964.354zm-15.964 12.646c0-4.42 2.221-8.326 5.601-10.676l5.88 13.676h-6.481v-8h-2v8h-3zm26 3h-3v-8h-2v8h-6.481l5.88-13.675c3.38 2.35 5.601 6.256 5.601 10.675zm14-17.781-1.949.487-.534.202-.465 1.142 1.296 2.16-3.139 3.138-2.159-1.296-1.22.503-.611 2.445h-4.48c-1.739-3.967-5.141-7.044-9.324-8.335 1.621-1.077 2.821-2.731 3.322-4.665h1.565c-.193.647-.302 1.319-.302 2 0 3.86 3.141 7 7 7s7-3.14 7-7c0-.681-.109-1.353-.302-2h4.302zm-6.422-4.219c.274.628.422 1.308.422 2 0 2.757-2.243 5-5 5s-5-2.243-5-5c0-.692.148-1.373.422-2zm24.422-3c0 .551-.448 1-1 1h-36c0-4.411-3.589-8-8-8-1.061 0-2.073.212-3 .589v-25.589c0-.551.448-1 1-1h46c.552 0 1 .449 1 1z"/><path d="m39 13h-4v-4h-16v10h16v-4h4v4h7v2h-7v10h16v-10h-7v-2h7v-10h-16zm-6 4h-12v-6h12zm20 12h-12v-6h12zm-12-18h12v6h-12z"/><path d="m43 13h2v2h-2z"/><path d="m47 13h4v2h-4z"/><path d="m43 25h8v2h-8z"/><path d="m23 13h9v2h-9z"/><path d="m23 21h2v2h-2z"/><path d="m27 21h2v2h-2z"/><path d="m31 21h2v2h-2z"/><path d="m19 25h14v2h-14z"/><path d="m24 29h9v2h-9z"/><path d="m47 43h12v2h-12z"/><path d="m47 47h12v2h-12z"/><path d="m57 51h2v2h-2z"/><path d="m53 51h2v2h-2z"/><path d="m49 51h2v2h-2z"/></svg>