<svg id="Layer_35" enable-background="new 0 0 64 64" height="512" viewBox="0 0 64 64" width="512" xmlns="http://www.w3.org/2000/svg"><g fill="#f0bc5e"><path d="m14 62 .9-9.9 1.1-1.1 1.1 1.1.9 9.9z"/><path d="m43 11h-10v-6h10z"/><path d="m49 18h10v5h-10z"/><path d="m59 47h-10v-6h10z"/><path d="m17 17h10v5h-10z"/><path d="m33 30h10v4h-10z"/><path d="m18 29h8v2h-8z"/></g><path d="m63 1h-50v30.589c-2.928 1.19-5 4.061-5 7.411 0 2.777 1.424 5.227 3.579 6.661-2.311.709-4.428 1.975-6.186 3.732-2.833 2.834-4.393 6.6-4.393 10.607v3h30v-3c0-3.379-1.136-6.49-3.028-9h35.028zm-2 12h-14v-10h14zm-40.585 32.665c2.158-1.434 3.585-3.885 3.585-6.665h5v10h-2.836c-1.628-1.505-3.579-2.665-5.749-3.335zm-6.78 1.556c.773-.141 1.563-.221 2.365-.221.807 0 1.594.084 2.361.225l-2.361 2.361zm.951 3.779-2.232 2.232-2.026-4.921c.359-.174.724-.332 1.097-.473zm5.983-3.155c.375.142.742.3 1.1.474l-2.023 4.913-2.232-2.232zm10.431-8.845h14v10h-14zm0-2v-10h14v10zm0-22h14v10h-14zm-2 10h-14v-10h14zm2-12v-10h14v10zm16 14h14v10h-14zm0-2v-10h14v10zm-18-22v10h-14v-10zm-14 24h14v10h-5.263c-.892-3.445-4.017-6-7.737-6-.339 0-.672.028-1 .069zm-5 12c0-3.309 2.691-6 6-6s6 2.691 6 6-2.691 6-6 6-6-2.691-6-6zm19 22h-3v-6h-2v6h-16v-6h-2v6h-3v-1c0-3.473 1.352-6.736 3.807-9.192.552-.552 1.15-1.039 1.777-1.477l3.062 7.437 4.354-4.354 4.354 4.354 3.06-7.432c3.371 2.351 5.586 6.251 5.586 10.664zm18-12v-10h14v10z"/><path d="m27 5h-10v6h10zm-2 4h-6v-2h6z"/><path d="m59 11v-6h-10v6zm-8-4h6v2h-6z"/><path d="m33 17v6h10v-6zm8 4h-6v-2h6z"/><path d="m49 17h10v2h-10z"/><path d="m57 21h2v2h-2z"/><path d="m53 21h2v2h-2z"/><path d="m49 21h2v2h-2z"/><path d="m49 29v6h10v-6zm8 4h-6v-2h6z"/><path d="m33 41v6h10v-6zm8 4h-6v-2h6z"/><path d="m17 17h2v2h-2z"/><path d="m21 17h2v2h-2z"/><path d="m25 17h2v2h-2z"/><path d="m17 21h10v2h-10z"/><path d="m33 29h10v2h-10z"/><path d="m33 33h10v2h-10z"/><path d="m25 29h2v2h-2z"/><path d="m21 29h2v2h-2z"/><path d="m25 33h2v2h-2z"/><path d="m17 29h2v2h-2z"/><path d="m25 41h2v2h-2z"/><path d="m25 45h2v2h-2z"/></svg>