<svg id="Layer_35" enable-background="new 0 0 64 64" height="512" viewBox="0 0 64 64" width="512" xmlns="http://www.w3.org/2000/svg"><path d="m2 28h5v2h-5z"/><path d="m53.781 63h-7.562l-.603-2.416-2.135 1.282-5.347-5.346 1.282-2.136-2.416-.603v-6.035h2v4.473l2.449.611.5 1.22-1.296 2.159 3.138 3.138 2.158-1.295 1.142.464.203.535.487 1.949h4.438l.612-2.452 1.22-.496 2.158 1.295 3.138-3.138-1.296-2.159.466-1.139.534-.206 1.949-.486v-4.438l-2.446-.611-.503-1.22 1.296-2.159-3.69-3.69 1.414-1.414 4.795 4.793-1.282 2.136 2.416.603v7.562l-2.416.603 1.282 2.136-5.347 5.346-2.135-1.282z"/><path d="m50 57c-3.86 0-7-3.141-7-7 0-.946.187-1.866.554-2.733l1.842.781c-.263.618-.396 1.275-.396 1.952 0 2.757 2.243 5 5 5s5-2.243 5-5c0-2.156-1.376-4.062-3.425-4.742l.63-1.898c2.868.952 4.795 3.619 4.795 6.64 0 3.859-3.14 7-7 7z"/><path d="m54 5h4v2h-4z" fill="#f0bc5e"/><path d="m58 11h-9v-5c0-2.757 2.243-5 5-5h4c2.757 0 5 2.243 5 5s-2.243 5-5 5zm-7-2h7c1.654 0 3-1.346 3-3s-1.346-3-3-3h-4c-1.654 0-3 1.346-3 3z"/><path d="m53 5h2v2h-2z"/><path d="m57 5h2v2h-2z"/><path d="m41 11c-10.477 0-19 8.523-19 19 0 .532.037 1.056.08 1.577.557.459.92 1.145.92 1.923 0 .472-.138.908-.366 1.285 2.13 8.163 9.545 14.215 18.366 14.215 10.477 0 19-8.523 19-19s-8.523-19-19-19zm0 33c-7.72 0-14-6.28-14-14s6.28-14 14-14 14 6.28 14 14-6.28 14-14 14z" fill="#f0bc5e"/><path d="m27.414 48 2.562-2.563c-.546-.392-1.072-.808-1.573-1.255l-2.403 2.404-1.586-1.586 2.406-2.407c-.445-.502-.86-1.03-1.251-1.577l-2.569 2.57-1-1-2 2v-7.586h.5c1.93 0 3.5-1.57 3.5-3.5s-1.57-3.5-3.5-3.5h-.5v-6.5c0-.827.673-1.5 1.5-1.5h2.29c.322-.691.684-1.357 1.084-2h-3.374c-1.93 0-3.5 1.57-3.5 3.5v6.5h-9c-.551 0-1-.448-1-1v-7h-2v7c0 1.654 1.346 3 3 3h11.5c.827 0 1.5.673 1.5 1.5s-.673 1.5-1.5 1.5h-12.5c-2.757 0-5-2.243-5-5v-6c0-3.859 3.14-7 7-7h.773l-.814 8.373 3.041 3.041 3.041-3.041-.814-8.373h11.955c.68-.723 1.414-1.391 2.2-2h-11.108c1.667-1.467 2.726-3.61 2.726-6 0-4.411-3.589-8-8-8s-8 3.589-8 8c0 2.518 1.172 4.765 2.997 6.233-4 .914-6.997 4.494-6.997 8.767v6c0 3.164 2.112 5.842 5 6.705v22.295c0 2.206 1.794 4 4 4 1.2 0 2.266-.542 3-1.382.734.84 1.8 1.382 3 1.382 2.206 0 4-1.794 4-4v-1.586l8.414-8.414zm-13.455-23.373-.959.959-.959-.959.741-7.627h.435zm-6.959-15.627c0-3.309 2.691-6 6-6s6 2.691 6 6-2.691 6-6 6-6-2.691-6-6zm9 52c-1.103 0-2-.897-2-2v-18h-2v18c0 1.103-.897 2-2 2s-2-.897-2-2v-22h10v22c0 1.103-.897 2-2 2zm4-6.414v-7.172l2-2 3.586 3.586z"/><path d="m41 15c-8.271 0-15 6.729-15 15s6.729 15 15 15 15-6.729 15-15-6.729-15-15-15zm0 2c7.168 0 13 5.832 13 13 0 2.535-.74 4.895-2 6.896v-11.896h-6v4h-2v-10h-6v14h-2v-6h-6v9.896c-1.26-2.002-2-4.362-2-6.896 0-7.168 5.832-13 13-13zm3 14h2v10.997c-.641.268-1.312.476-2 .64zm6 8.359c-.612.589-1.282 1.117-2 1.578v-13.937h2zm-16 1.578c-.718-.461-1.388-.989-2-1.578v-10.359h2zm2-5.937h2v7.637c-.688-.163-1.359-.371-2-.64zm4 7.949v-21.949h2v21.949c-.331.026-.662.051-1 .051s-.669-.025-1-.051z"/></svg>