<svg id="Layer_35" enable-background="new 0 0 64 64" height="512" viewBox="0 0 64 64" width="512" xmlns="http://www.w3.org/2000/svg"><path d="m63 22.792v-7.584l-2.635-.62c-.332-1.159-.795-2.275-1.381-3.332l1.426-2.303-5.363-5.363-2.303 1.426c-1.057-.586-2.173-1.049-3.332-1.381l-.62-2.635h-7.584l-.62 2.635c-1.159.332-2.275.795-3.332 1.381l-2.303-1.426-5.363 5.363 1.426 2.303c-.586 1.057-1.049 2.173-1.381 3.332l-2.635.62v2.949c.286-.101.588-.157.895-.157h.418c1.484 0 2.687 1.203 2.687 2.686 0 .829-.383 1.611-1.037 2.12l-.49.381.106.213.056.013c.332 1.159.795 2.275 1.381 3.331l-1.426 2.303 5.363 5.363 2.303-1.426c1.057.586 2.173 1.049 3.332 1.381l.62 2.635h7.584l.62-2.635c1.159-.332 2.275-.795 3.332-1.381l2.303 1.426 5.363-5.363-1.426-2.303c.586-1.057 1.049-2.173 1.381-3.332zm-18 7.208c-6.075 0-11-4.925-11-11s4.925-11 11-11 11 4.925 11 11-4.925 11-11 11z" fill="#f0bc5e"/><path d="m23.192 49.433h1.986v1.999h-1.986z" transform="matrix(.821 -.571 .571 .821 -24.48 22.862)"/><path d="m25.514 42.737h16.583v1.999h-16.583z" transform="matrix(.821 -.572 .572 .821 -18.931 27.166)"/><path d="m61 23.263v37.737h-52.556c.344-.591.556-1.268.556-2v-1.655l5.12-3.578c.018.019.031.042.05.061.756.756 1.761 1.172 2.829 1.172 2.206 0 4.001-1.795 4.001-4.001v-2.005l19.789-13.774-.201-.855c-.469-.134-.925-.305-1.379-.481l-18.209 12.674v-4.558c0-2.757-2.243-5-5-5h-2v-7h5.941c1.55 0 3.076-.523 4.298-1.475l6.338-4.93c.904-.702 1.423-1.763 1.423-2.908 0-2.034-1.653-3.687-3.687-3.687h-.418c-.792 0-1.577.262-2.212.737l-6.75 5.063c-.172.129-.385.2-.6.2h-2.444c1.301-1.272 2.111-3.042 2.111-5 0-3.859-3.141-7-7-7s-7 3.141-7 7c0 2.288 1.108 4.316 2.811 5.594-3.391 1.291-5.811 4.567-5.811 8.406v8 19c0 2.206 1.794 4 4 4h58v-40.208zm-52 31.642v-9.905h4l-.001 5.998v.001c0 .348.059.683.144 1.011zm-3-36.905c0-2.757 2.243-5 5-5s5 2.243 5 5-2.243 5-5 5-5-2.243-5-5zm-3 14c0-3.859 3.141-7 7-7h8.333c.646 0 1.285-.214 1.8-.601l6.75-5.062c.291-.217.65-.337 1.013-.337h.418c.929 0 1.686.757 1.686 1.687 0 .524-.237 1.009-.651 1.331l-6.338 4.93c-.872.678-1.962 1.052-3.07 1.052h-7.941v11h4c1.654 0 3 1.346 3 3v8.999c0 1.104-.897 2.001-2.001 2.001-.534 0-1.037-.208-1.415-.586-.377-.378-.585-.88-.585-1.414l.001-6c0-1.103-.897-2-2-2h-7c-1.654 0-3-1.346-3-3zm0 27v-15.026c.838.635 1.87 1.026 3 1.026h1v14c0 1.103-.897 2-2 2s-2-.897-2-2z"/><path d="m45 31c6.617 0 12-5.383 12-12s-5.383-12-12-12-12 5.383-12 12 5.383 12 12 12zm0-22c5.514 0 10 4.486 10 10s-4.486 10-10 10-10-4.486-10-10 4.486-10 10-10z"/><path d="m45 25c3.309 0 6-2.691 6-6s-2.691-6-6-6-6 2.691-6 6 2.691 6 6 6zm0-10c2.206 0 4 1.794 4 4s-1.794 4-4 4-4-1.794-4-4 1.794-4 4-4z"/><path d="m57 57h2v2h-2z"/><path d="m57 53h2v2h-2z"/><path d="m57 49h2v2h-2z"/><path d="m11 57h2v2h-2z"/><path d="m15 57h2v2h-2z"/><path d="m19 57h2v2h-2z"/></svg>