<svg id="Layer_35" enable-background="new 0 0 64 64" height="512" viewBox="0 0 64 64" width="512" xmlns="http://www.w3.org/2000/svg"><g fill="#f0bc5e"><path d="m44 54h10v5h-10z"/><path d="m45 6h14v4h-14z"/><path d="m45 14h14v4h-14z"/><path d="m24 1h-20c-1.654 0-3 1.346-3 3v14c0 1.654 1.346 3 3 3h20c1.654 0 3-1.346 3-3v-14c0-1.654-1.346-3-3-3zm-2 15h-4-12v-4h4v-2h4v-2h4v-2h4z"/><path d="m8 27h8v2h-8z"/></g><path d="m52 57h2v2h-2z"/><path d="m48 57h2v2h-2z"/><path d="m44 57h2v2h-2z"/><path d="m44 53h10v2h-10z"/><path d="m44 7h16c1.654 0 3-1.346 3-3s-1.346-3-3-3h-16c-1.654 0-3 1.346-3 3s1.346 3 3 3zm0-4h16c.552 0 1 .448 1 1s-.448 1-1 1h-16c-.552 0-1-.448-1-1s.448-1 1-1z"/><path d="m60 9h-16c-1.302 0-2.402.839-2.816 2h-1.184c-2.757 0-5 2.243-5 5v21h-2v-21c0-2.757-2.243-5-5-5h-1v2h1c1.654 0 3 1.346 3 3v21h-2v-5c0-2.757-2.243-5-5-5h-3.101c-.465-2.279-2.484-4-4.899-4h-8c-2.757 0-5 2.243-5 5s2.243 5 5 5h13v-4h3c1.654 0 3 1.346 3 3v5h-20.618l-5 10h4.618v16h52v-16h4.618l-5-10h-16.618v-3c0-1.654 1.346-3 3-3h1.101c.465 2.279 2.484 4 4.899 4 2.757 0 5-2.243 5-5s-2.243-5-5-5c-2.414 0-4.434 1.721-4.899 4h-1.101c-2.757 0-5 2.243-5 5v3h-2v-21c0-1.654 1.346-3 3-3h1.184c.414 1.161 1.514 2 2.816 2h16c1.654 0 3-1.346 3-3s-1.346-3-3-3zm-41 22h-11c-1.654 0-3-1.346-3-3s1.346-3 3-3h8c1.654 0 3 1.346 3 3zm31-4c1.654 0 3 1.346 3 3s-1.346 3-3 3-3-1.346-3-3 1.346-3 3-3zm-42.382 12h14.764l-3 6h-14.764zm.382 8h12.618l3.382-6.764v20.764h-16zm48 14h-30v-20.764l3.382 6.764h26.618zm3.382-16h-28.764l-3-6h28.764zm.618-32h-16c-.552 0-1-.448-1-1s.448-1 1-1h16c.552 0 1 .448 1 1s-.448 1-1 1z"/><path d="m60 17h-16c-1.654 0-3 1.346-3 3s1.346 3 3 3h16c1.654 0 3-1.346 3-3s-1.346-3-3-3zm0 4h-16c-.552 0-1-.448-1-1s.448-1 1-1h16c.552 0 1 .448 1 1s-.448 1-1 1z"/><path d="m23 5h-6v2h-4v2h-4v2h-4v6h18zm-10 6v4h-2v-4zm-6 2h2v2h-2zm8 2v-6h2v6zm6 0h-2v-8h2z"/><path d="m7 27h2v2h-2z"/><path d="m11 27h2v2h-2z"/><path d="m15 27h2v2h-2z"/><path d="m53 41h2v2h-2z"/><path d="m49 41h2v2h-2z"/><path d="m45 41h2v2h-2z"/><path d="m10 49h2v2h-2z"/><path d="m10 53h2v2h-2z"/><path d="m10 57h2v2h-2z"/></svg>