<svg height="512" viewBox="0 0 64 64" width="512" xmlns="http://www.w3.org/2000/svg"><g id="bigdata"><path d="m61 55v4a2.006 2.006 0 0 1 -2 2h-12a2.006 2.006 0 0 1 -2-2v-4z" fill="#57a4ff"/><path d="m45 49h16v6h-16z" fill="#57a4ff"/><path d="m61 45v4h-16v-4a2.006 2.006 0 0 1 2-2h12a2.006 2.006 0 0 1 2 2z" fill="#57a4ff"/><path d="m61 15v4a2.006 2.006 0 0 1 -2 2h-12a2.006 2.006 0 0 1 -2-2v-4z" fill="#57a4ff"/><path d="m45 9h16v6h-16z" fill="#57a4ff"/><path d="m61 5v4h-16v-4a2.006 2.006 0 0 1 2-2h12a2.006 2.006 0 0 1 2 2z" fill="#57a4ff"/><path d="m61 15v4a2.006 2.006 0 0 1 -2 2h-4a2.006 2.006 0 0 0 2-2v-4z" fill="#006df0"/><path d="m57 9h4v6h-4z" fill="#006df0"/><path d="m61 5v4h-4v-4a2.006 2.006 0 0 0 -2-2h4a2.006 2.006 0 0 1 2 2z" fill="#006df0"/><path d="m40 55-1.98.49 1.05 1.75-2.83 2.83-1.75-1.05-.49 1.98h-4l-.49-1.98-1.75 1.05-2.83-2.83 1.05-1.75-1.98-.49v-4l1.98-.49-1.05-1.75 2.83-2.83 1.75 1.05.49-1.98h4l.49 1.98 1.75-1.05 2.83 2.83-1.05 1.75 1.98.49z" fill="#c0ab91"/><path d="m40 13-1.98.49 1.05 1.75-2.83 2.83-1.75-1.05-.49 1.98h-4l-.49-1.98-1.75 1.05-2.83-2.83 1.05-1.75-1.98-.49v-4l1.98-.49-1.05-1.75 2.83-2.83 1.75 1.05.49-1.98h4l.49 1.98 1.75-1.05 2.83 2.83-1.05 1.75 1.98.49z" fill="#c0ab91"/><path d="m32 24c2.59 0 5 1.41 5 4 0 4-3 4-3 6h-4c0-2-3-2-3-6 0-2.59 2.41-4 5-4z" fill="#ffde55"/><circle cx="32" cy="11" fill="#ffde55" r="3"/><circle cx="32" cy="53" fill="#ffde55" r="3"/><path d="m19 55v4a2.006 2.006 0 0 1 -2 2h-12a2.006 2.006 0 0 1 -2-2v-4z" fill="#57a4ff"/><path d="m3 49h16v6h-16z" fill="#57a4ff"/><path d="m19 45v4h-16v-4a2.006 2.006 0 0 1 2-2h12a2.006 2.006 0 0 1 2 2z" fill="#57a4ff"/><path d="m19 15v4a2.006 2.006 0 0 1 -2 2h-12a2.006 2.006 0 0 1 -2-2v-4z" fill="#57a4ff"/><path d="m3 9h16v6h-16z" fill="#57a4ff"/><path d="m19 5v4h-16v-4a2.006 2.006 0 0 1 2-2h12a2.006 2.006 0 0 1 2 2z" fill="#57a4ff"/><g fill="#006df0"><path d="m19 15v4a2.006 2.006 0 0 1 -2 2h-4a2.006 2.006 0 0 0 2-2v-4z"/><path d="m15 9h4v6h-4z"/><path d="m19 5v4h-4v-4a2.006 2.006 0 0 0 -2-2h4a2.006 2.006 0 0 1 2 2z"/><path d="m61 55v4a2.006 2.006 0 0 1 -2 2h-4a2.006 2.006 0 0 0 2-2v-4z"/><path d="m57 49h4v6h-4z"/><path d="m61 45v4h-4v-4a2.006 2.006 0 0 0 -2-2h4a2.006 2.006 0 0 1 2 2z"/><path d="m19 55v4a2.006 2.006 0 0 1 -2 2h-4a2.006 2.006 0 0 0 2-2v-4z"/><path d="m15 49h4v6h-4z"/><path d="m19 45v4h-4v-4a2.006 2.006 0 0 0 -2-2h4a2.006 2.006 0 0 1 2 2z"/></g><path d="m37 28c0 4-3 4-3 6h-4c0-2 3-2 3-6a3.88 3.88 0 0 0 -3-3.7 6.54 6.54 0 0 1 2-.3c2.59 0 5 1.41 5 4z" fill="#ffcd00"/><path d="m6 11h2v2h-2z"/><path d="m6 5h2v2h-2z"/><path d="m17 2h-12a3.009 3.009 0 0 0 -3 3v14a3.009 3.009 0 0 0 3 3h12a3.009 3.009 0 0 0 3-3v-14a3.009 3.009 0 0 0 -3-3zm1 17a1 1 0 0 1 -1 1h-12a1 1 0 0 1 -1-1v-3h14zm0-5h-14v-4h14zm0-6h-14v-3a1 1 0 0 1 1-1h12a1 1 0 0 1 1 1z"/><path d="m6 17h2v2h-2z"/><path d="m48 11h2v2h-2z"/><path d="m59 2h-12a3.009 3.009 0 0 0 -3 3v14a3.009 3.009 0 0 0 3 3h12a3.009 3.009 0 0 0 3-3v-14a3.009 3.009 0 0 0 -3-3zm1 17a1 1 0 0 1 -1 1h-12a1 1 0 0 1 -1-1v-3h14zm0-5h-14v-4h14zm0-6h-14v-3a1 1 0 0 1 1-1h12a1 1 0 0 1 1 1z"/><path d="m48 5h2v2h-2z"/><path d="m48 17h2v2h-2z"/><path d="m6 51h2v2h-2z"/><path d="m17 42h-12a3.009 3.009 0 0 0 -3 3v14a3.009 3.009 0 0 0 3 3h12a3.009 3.009 0 0 0 3-3v-14a3.009 3.009 0 0 0 -3-3zm1 17a1 1 0 0 1 -1 1h-12a1 1 0 0 1 -1-1v-3h14zm0-5h-14v-4h14zm0-6h-14v-3a1 1 0 0 1 1-1h12a1 1 0 0 1 1 1z"/><path d="m6 45h2v2h-2z"/><path d="m6 57h2v2h-2z"/><path d="m48 51h2v2h-2z"/><path d="m59 42h-12a3.009 3.009 0 0 0 -3 3v14a3.009 3.009 0 0 0 3 3h12a3.009 3.009 0 0 0 3-3v-14a3.009 3.009 0 0 0 -3-3zm1 17a1 1 0 0 1 -1 1h-12a1 1 0 0 1 -1-1v-3h14zm0-5h-14v-4h14zm0-6h-14v-3a1 1 0 0 1 1-1h12a1 1 0 0 1 1 1z"/><path d="m48 45h2v2h-2z"/><path d="m48 57h2v2h-2z"/><path d="m24 28h-14a1 1 0 0 1 -1-1v-3h-2v3a3 3 0 0 0 3 3h14z"/><path d="m7 37v3h2v-3a1 1 0 0 1 1-1h14v-2h-14a3 3 0 0 0 -3 3z"/><path d="m57 24h-2v3a1 1 0 0 1 -1 1h-14v2h14a3 3 0 0 0 3-3z"/><path d="m57 40v-3a3 3 0 0 0 -3-3h-14v2h14a1 1 0 0 1 1 1v3z"/><path d="m32 49a4 4 0 1 0 4 4 4 4 0 0 0 -4-4zm0 6a2 2 0 1 1 2-2 2 2 0 0 1 -2 2z"/><path d="m40.24 50.03-.67-.17.36-.59a1 1 0 0 0 -.15-1.22l-2.83-2.83a1 1 0 0 0 -1.22-.15l-.59.36-.17-.67a1 1 0 0 0 -.97-.76h-4a1 1 0 0 0 -.97.76l-.17.67-.59-.36a1 1 0 0 0 -1.22.15l-2.83 2.83a1 1 0 0 0 -.15 1.22l.36.59-.67.17a1 1 0 0 0 -.76.97v4a1 1 0 0 0 .76.97l.67.17-.36.59a1 1 0 0 0 .15 1.22l2.83 2.83a1 1 0 0 0 1.22.15l.59-.36.17.67a1 1 0 0 0 .97.76h4a1 1 0 0 0 .97-.76l.17-.67.59.36a1 1 0 0 0 1.22-.15l2.83-2.83a1 1 0 0 0 .15-1.22l-.36-.59.67-.17a1 1 0 0 0 .76-.97v-4a1 1 0 0 0 -.76-.97zm-1.24 4.19-1.22.3a1.007 1.007 0 0 0 -.68.59 1.019 1.019 0 0 0 .06.9l.65 1.08-1.72 1.72-1.08-.64a.989.989 0 0 0 -.9-.07 1.007 1.007 0 0 0 -.59.68l-.3 1.22h-2.44l-.3-1.22a1.007 1.007 0 0 0 -.59-.68.989.989 0 0 0 -.9.07l-1.08.64-1.72-1.72.65-1.08a1.019 1.019 0 0 0 .06-.9 1.007 1.007 0 0 0 -.68-.59l-1.22-.3v-2.44l1.22-.3a1.007 1.007 0 0 0 .68-.59 1.019 1.019 0 0 0 -.06-.9l-.65-1.08 1.72-1.72 1.08.64a.987.987 0 0 0 .9.07 1.007 1.007 0 0 0 .59-.68l.3-1.22h2.44l.3 1.22a1.007 1.007 0 0 0 .59.68.989.989 0 0 0 .9-.07l1.08-.64 1.72 1.72-.65 1.08a1.019 1.019 0 0 0 -.06.9 1.007 1.007 0 0 0 .68.59l1.22.3z"/><path d="m32 15a4 4 0 1 0 -4-4 4 4 0 0 0 4 4zm0-6a2 2 0 1 1 -2 2 2 2 0 0 1 2-2z"/><path d="m40.24 8.03-.67-.17.36-.59a1 1 0 0 0 -.15-1.22l-2.83-2.83a1.012 1.012 0 0 0 -1.22-.15l-.59.36-.17-.67a1 1 0 0 0 -.97-.76h-4a1 1 0 0 0 -.97.76l-.17.67-.59-.36a1.012 1.012 0 0 0 -1.22.15l-2.83 2.83a1 1 0 0 0 -.15 1.22l.36.59-.67.17a1 1 0 0 0 -.76.97v4a1 1 0 0 0 .76.97l.67.17-.36.59a1 1 0 0 0 .15 1.22l2.83 2.83a1 1 0 0 0 1.22.15l.59-.36.17.67a1 1 0 0 0 .97.76h4a1 1 0 0 0 .97-.76l.17-.67.59.36a1 1 0 0 0 1.22-.15l2.83-2.83a1 1 0 0 0 .15-1.22l-.36-.59.67-.17a1 1 0 0 0 .76-.97v-4a1 1 0 0 0 -.76-.97zm-1.24 4.19-1.22.3a1.007 1.007 0 0 0 -.68.59 1.019 1.019 0 0 0 .06.9l.65 1.08-1.72 1.72-1.08-.64a.989.989 0 0 0 -.9-.07 1.007 1.007 0 0 0 -.59.68l-.3 1.22h-2.44l-.3-1.22a1.007 1.007 0 0 0 -.59-.68.989.989 0 0 0 -.9.07l-1.08.64-1.72-1.72.65-1.08a1.019 1.019 0 0 0 .06-.9 1.007 1.007 0 0 0 -.68-.59l-1.22-.3v-2.44l1.22-.3a1.007 1.007 0 0 0 .68-.59 1.019 1.019 0 0 0 -.06-.9l-.65-1.08 1.72-1.72 1.08.64a.987.987 0 0 0 .9.07 1.007 1.007 0 0 0 .59-.68l.3-1.22h2.44l.3 1.22a1.007 1.007 0 0 0 .59.68.989.989 0 0 0 .9-.07l1.08-.64 1.72 1.72-.65 1.08a1.019 1.019 0 0 0 -.06.9 1.007 1.007 0 0 0 .68.59l1.22.3z"/><path d="m32 23c-2.98 0-6 1.72-6 5a5.929 5.929 0 0 0 2.2 4.85c.59.56.8.79.8 1.15a1 1 0 0 0 1 1h4a1 1 0 0 0 1-1c0-.36.21-.59.8-1.15a5.929 5.929 0 0 0 2.2-4.85c0-3.28-3.02-5-6-5zm2.43 8.39a4.593 4.593 0 0 0 -1.25 1.61h-2.36a4.593 4.593 0 0 0 -1.25-1.61 3.98 3.98 0 0 1 -1.57-3.39c0-2.06 2.07-3 4-3s4 .94 4 3a3.98 3.98 0 0 1 -1.57 3.39z"/><path d="m29 36h6v2h-6z"/><path d="m29 39h6v2h-6z"/></g></svg>