<svg height="480pt" viewBox="0 1 480 479" width="480pt" xmlns="http://www.w3.org/2000/svg"><path d="m232 88.5c0-44.183594 35.816406-80 80-80s80 35.816406 80 80h24c30.929688 0 56 25.070312 56 56s-25.070312 56-56 56h-216c-30.929688 0-56-25.070312-56-56s25.070312-56 56-56zm0 0" fill="#efefef"/><path d="m24 136.5h264c8.835938 0 16 7.164062 16 16v176h-296v-176c0-8.835938 7.164062-16 16-16zm0 0" fill="#75c1ff"/><path d="m8 328.5h296v64c0 8.835938-7.164062 16-16 16h-264c-8.835938 0-16-7.164062-16-16zm0 0" fill="#efefef"/><path d="m184 408.5h-56l24 64h56zm0 0" fill="#bcbcbc"/><path d="m264 280.5h64v64h-80v-48c0-8.835938 7.164062-16 16-16zm0 0" fill="#ffe675"/><path d="m328 280.5h128c8.835938 0 16 7.164062 16 16v48h-144zm0 0" fill="#e6cf69"/><path d="m248 344.5h80v64h-80zm0 0" fill="#e6cf69"/><path d="m328 344.5h144v64h-144zm0 0" fill="#ccb85d"/><path d="m248 408.5h80v64h-64c-8.835938 0-16-7.164062-16-16zm0 0" fill="#ccb85d"/><path d="m328 408.5h144v48c0 8.835938-7.164062 16-16 16h-128zm0 0" fill="#b3a151"/><path d="m200 96.5h40v-8c0-39.765625 32.234375-72 72-72s72 32.234375 72 72v8h32c26.507812 0 48 21.492188 48 48s-21.492188 48-48 48h-16v16h16c35.347656 0 64-28.652344 64-64s-28.652344-64-64-64h-16.359375c-4.140625-45.3125-42.136719-80-87.640625-80s-83.5 34.6875-87.640625 80h-24.359375c-16.757812-.042969-32.851562 6.53125-44.789062 18.289062l11.203124 11.421876c8.953126-8.816407 21.023438-13.742188 33.585938-13.710938zm0 0"/><path d="m328 192.5h24v16h-24zm0 0"/><path d="m16 152.5c.003906-4.417969 3.582031-7.996094 8-8h264c4.417969.003906 7.996094 3.582031 8 8v104h16v-104c-.015625-13.25-10.75-23.984375-24-24h-264c-13.25.015625-23.984375 10.75-24 24v240c.015625 13.25 10.75 23.984375 24 24h98.453125l18 48h-60.453125v16h144v-16h-10.453125l-18-48h28.453125v-16h-200c-4.417969-.003906-7.996094-3.582031-8-8v-56h208v-16h-208zm162.453125 264 18 48h-38.90625l-18-48zm0 0"/><path d="m384 256.5v-108.6875l18.34375 18.34375 11.3125-11.3125-37.65625-37.65625-37.65625 37.65625 11.3125 11.3125 18.34375-18.34375v108.6875zm0 0"/><path d="m456 272.5h-192c-13.25.015625-23.984375 10.75-24 24v160c.015625 13.25 10.75 23.984375 24 24h192c13.25-.015625 23.984375-10.75 24-24v-160c-.015625-13.25-10.75-23.984375-24-24zm-200 24c.003906-4.417969 3.582031-7.996094 8-8h56v48h-64zm0 56h64v48h-64zm0 104v-40h64v48h-56c-4.417969-.003906-7.996094-3.582031-8-8zm208 0c-.003906 4.417969-3.582031 7.996094-8 8h-120v-48h128zm0-56h-128v-48h128zm-128-64v-48h120c4.417969.003906 7.996094 3.582031 8 8v40zm0 0"/><path d="m360 304.5h16v16h-16zm0 0"/><path d="m392 304.5h16v16h-16zm0 0"/><path d="m424 304.5h16v16h-16zm0 0"/><path d="m360 368.5h16v16h-16zm0 0"/><path d="m392 368.5h16v16h-16zm0 0"/><path d="m424 368.5h16v16h-16zm0 0"/><path d="m360 432.5h16v16h-16zm0 0"/><path d="m392 432.5h16v16h-16zm0 0"/><path d="m424 432.5h16v16h-16zm0 0"/><path d="m168 368.5c0 8.835938-7.164062 16-16 16s-16-7.164062-16-16 7.164062-16 16-16 16 7.164062 16 16zm0 0"/><path d="m280 304.5h16v16h-16zm0 0"/><path d="m280 368.5h16v16h-16zm0 0"/><path d="m280 432.5h16v16h-16zm0 0"/></svg>