<svg height="495pt" viewBox="0 -67 495.99972 495" width="495pt" xmlns="http://www.w3.org/2000/svg"><path d="m312 256.5v48h-40l-16-16-16 16h-16l-16-16-16 16h-16l-16-16-16 16h-24l-24-24 24-24zm0 0" fill="#fcd770"/><path d="m408 256.5v64c0 17.679688-14.320312 32-32 32h-48c-8.800781 0-16-7.199219-16-16v-96c0-8.800781 7.199219-16 16-16h48c17.679688 0 32 14.320312 32 32zm-32 56v-48c0-4.398438-3.601562-8-8-8h-24v64h24c4.398438 0 8-3.601562 8-8zm0 0" fill="#b4dd7f"/><path d="m408 96.5h16c35.359375 0 64 28.640625 64 64 0 17.679688-7.199219 33.679688-18.71875 45.28125-11.601562 11.519531-27.601562 18.71875-45.28125 18.71875h-176v-80h-80v80h-96c-35.039062 0-63.519531-28.160156-64-63.039062-.398438-27.761719 17.359375-51.761719 43.359375-61.28125 13.121094-4.800782 25.519531-4.480469 36.71875-1.519532-.078125-.71875-.078125-1.441406-.078125-2.160156 0-48.640625 39.359375-88 88-88 29.757812 0 56.160156 14.800781 72 37.519531 15.917969-22.640625 42.238281-37.519531 72-37.519531 48.558594 0 88 39.359375 88 88zm0 0" fill="#e6e9ed"/><path d="m168 144.5h80v80h-80zm0 0" fill="#fcd770"/><path d="m424 88.5h-8.410156c-4.085938-49.199219-45.351563-88-95.589844-88-27.617188 0-53.769531 12.03125-71.894531 32.558594-17.839844-20.375-43.753907-32.558594-72.105469-32.558594-50.433594 0-91.816406 39.113281-95.625 88.582031-10.816406-1.308593-21.449219-.148437-31.726562 3.601563-29.992188 10.976562-49.089844 38-48.6406255 68.847656.5507815 39.136719 32.8398435 70.96875 71.9921875 70.96875h184v-96h-16v-20c0-19.847656-16.152344-36-36-36s-36 16.152344-36 36v4h16v-4c0-11.03125 8.96875-20 20-20s20 8.96875 20 20v20h-64v80h-88c-30.449219 0-55.558594-24.761719-55.992188-55.183594-.34375-23.953125 14.625-44.992187 38.136719-53.59375 8.597657-3.136718 17.269531-3.855468 26.3125-2.40625.535157 5.878906 1.558594 11.695313 3.167969 17.359375l15.390625-4.34375c-2-7.082031-3.015625-14.425781-3.015625-21.832031 0-44.113281 35.886719-80 80-80 33.199219 0 62.472656 19.984375 74.542969 50.910156l14.90625-5.832031c-2.097657-5.351563-4.664063-10.398437-7.5625-15.175781 15.152343-18.75 37.929687-29.902344 62.113281-29.902344 41.40625 0 75.566406 31.632812 79.589844 72h-31.589844v16h56c30.871094 0 56 25.128906 56 56s-25.128906 56-56 56h-96c-13.230469 0-24 10.769531-24 24v8h-187.3125l-32 32 32 32h30.625l12.6875-12.6875 12.6875 12.6875h22.625l12.6875-12.6875 12.6875 12.6875h22.625l12.6875-12.6875 12.6875 12.6875h35.3125v24c0 13.230469 10.769531 24 24 24h48c22.054688 0 40-17.945312 40-40v-72h-16v72c0 13.230469-10.769531 24-24 24h-48c-4.417969 0-8-3.585938-8-8v-96c0-4.417969 3.582031-8 8-8h96c39.703125 0 72-32.296875 72-72s-32.296875-72-72-72zm-248 64h64v64h-24v-16h-16v16h-24zm99.3125 144-19.3125-19.3125-19.3125 19.3125h-9.375l-19.3125-19.3125-19.3125 19.3125h-9.375l-19.3125-19.3125-19.3125 19.3125h-17.375l-16-16 16-16h180.6875v32zm0 0"/><path d="m336 88.5h16v16h-16zm0 0"/><path d="m304 88.5h16v16h-16zm0 0"/><path d="m272 88.5h16v16h-16zm0 0"/><path d="m448 152.5h16v16h-16zm0 0"/><path d="m416 152.5h16v16h-16zm0 0"/><path d="m384 152.5h16v16h-16zm0 0"/><path d="m128 96.5c0-26.472656 21.527344-48 48-48v-16c-35.289062 0-64 28.710938-64 64zm0 0"/><path d="m336 248.5v80h32c8.824219 0 16-7.175781 16-16v-48c0-8.824219-7.175781-16-16-16zm16 64v-48h16l.015625 48zm0 0"/><path d="m200 168.5h16v16h-16zm0 0"/></svg>