<svg height="512" viewBox="0 0 64 64" width="512" xmlns="http://www.w3.org/2000/svg"><g id="hologram"><path d="m61 39-11 10h-36l-11-10z" fill="#00d7df"/><path d="m61 39-11 10h-5l11-10z" fill="#009698"/><path d="m61 55a6.009 6.009 0 0 1 -6 6h-46a6 6 0 0 1 -6-6 6.009 6.009 0 0 1 6-6h46a6 6 0 0 1 6 6z" fill="#57a4ff"/><path d="m61 55a6.009 6.009 0 0 1 -6 6h-5a6.009 6.009 0 0 0 6-6 6 6 0 0 0 -6-6h5a6 6 0 0 1 6 6z" fill="#006df0"/><path d="m32 15h18v20h-18z" fill="#ff7956"/><circle cx="32" cy="55" fill="#ffde55" r="2"/><path d="m32 5v30h-18v-30a2.006 2.006 0 0 1 2-2h14a2.006 2.006 0 0 1 2 2z" fill="#c0ab91"/><path d="m32 5v30h-4v-30a2.006 2.006 0 0 0 -2-2h4a2.006 2.006 0 0 1 2 2z" fill="#a78966"/><path d="m46 15h4v20h-4z" fill="#ff5023"/><path d="m55 48h-2.41l9.08-8.26a1 1 0 0 0 -.67-1.74h-58a1 1 0 0 0 -.67 1.74l9.08 8.26h-2.41a7 7 0 0 0 0 14h46a7 7 0 0 0 0-14zm-49.41-8h52.82l-8.8 8h-35.22zm49.41 20h-46a5 5 0 0 1 0-10h46a5 5 0 0 1 0 10z"/><path d="m32 52a3 3 0 1 0 3 3 3 3 0 0 0 -3-3zm0 4a1 1 0 1 1 1-1 1 1 0 0 1 -1 1z"/><path d="m37 54h19v2h-19z"/><path d="m8 54h19v2h-19z"/><path d="m50 14h-17v-9a3.009 3.009 0 0 0 -3-3h-14a3.009 3.009 0 0 0 -3 3v30a1 1 0 0 0 1 1h36a1 1 0 0 0 1-1v-20a1 1 0 0 0 -1-1zm-19 20h-16v-29a1 1 0 0 1 1-1h14a1 1 0 0 1 1 1zm18 0h-16v-18h16z"/><path d="m17 6h2v2h-2z"/><path d="m27 6h2v2h-2z"/><path d="m22 6h2v2h-2z"/><path d="m17 10h2v2h-2z"/><path d="m27 10h2v2h-2z"/><path d="m22 10h2v2h-2z"/><path d="m17 14h2v2h-2z"/><path d="m27 14h2v2h-2z"/><path d="m22 14h2v2h-2z"/><path d="m17 18h2v2h-2z"/><path d="m27 18h2v2h-2z"/><path d="m22 18h2v2h-2z"/><path d="m17 22h2v2h-2z"/><path d="m27 22h2v2h-2z"/><path d="m22 22h2v2h-2z"/><path d="m17 26h2v2h-2z"/><path d="m27 26h2v2h-2z"/><path d="m22 26h2v2h-2z"/><path d="m17 30h2v2h-2z"/><path d="m27 30h2v2h-2z"/><path d="m22 30h2v2h-2z"/><path d="m35 18h2v2h-2z"/><path d="m45 18h2v2h-2z"/><path d="m40 18h2v2h-2z"/><path d="m35 22h2v2h-2z"/><path d="m45 22h2v2h-2z"/><path d="m40 22h2v2h-2z"/><path d="m35 26h2v2h-2z"/><path d="m45 26h2v2h-2z"/><path d="m40 26h2v2h-2z"/><path d="m35 30h2v2h-2z"/><path d="m45 30h2v2h-2z"/><path d="m40 30h2v2h-2z"/><path d="m4 34h2v2h-2z"/><path d="m4 17h2v15h-2z"/><path d="m58 34h2v2h-2z"/><path d="m58 17h2v15h-2z"/></g></svg>