<svg height="496pt" viewBox="0 0 496 496" width="496pt" xmlns="http://www.w3.org/2000/svg"><path d="m216 32h64v16h-64zm0 0"/><path d="m296 32h16v16h-16zm0 0"/><path d="m184 32h16v16h-16zm0 0"/><path d="m224 448h48v16h-48zm0 0"/><path d="m496 176h-96v-136c0-22.054688-17.945312-40-40-40h-224c-22.054688 0-40 17.945312-40 40v136h-96v208h96v72c0 22.054688 17.945312 40 40 40h224c22.054688 0 40-17.945312 40-40v-72h96zm-360-160h224c13.230469 0 24 10.769531 24 24v24h-272v-24c0-13.230469 10.769531-24 24-24zm-24 64h272v96h-16v-72h-240v72h-16zm32 248v-208h208v208zm-16-43.3125-32 32-42.054688-42.0625c-3.832031-3.832031-5.945312-8.929688-5.945312-14.34375 0-11.175781 9.105469-20.28125 20.289062-20.28125 5.421876 0 10.511719 2.113281 14.335938 5.9375l13.375 13.382812 13.367188-13.382812c4.863281-4.875 12.039062-6.785156 18.632812-5.410156zm-112-92.6875h112v32.359375c-10.816406-1.207031-22.0625 2.394531-29.945312 10.265625l-2.054688 2.054688-2.054688-2.054688c-6.855468-6.847656-15.960937-10.625-25.65625-10.625-20.007812 0-36.289062 16.273438-36.289062 36.28125 0 9.6875 3.777344 18.808594 10.632812 25.65625l53.367188 53.375 32-32v36.6875h48v24h-160zm368 264c0 13.230469-10.769531 24-24 24h-224c-13.230469 0-24-10.769531-24-24v-24h272zm0-40h-272v-32h80v-40h112v40h80zm96-48h-160v-24h48v-107.703125c8.816406-7.921875 20.054688-12.296875 32-12.296875 26.472656 0 48 21.527344 48 48v62.382812l-24-16-24 16-11.558594-7.703124-8.875 13.3125 20.433594 13.625 24-16 21.574219 14.382812h18.425781v-80c0-35.289062-28.710938-64-64-64-11.433594 0-22.367188 3.039062-32 8.625v-24.625h112zm0 0"/><path d="m325.617188 177.167969-30.785157-30.785157-18.511719 9.257813-6.550781-19.640625h-43.53125l-6.550781 19.640625-18.511719-9.257813-30.785156 30.785157 9.265625 18.519531-19.65625 6.542969v43.53125l19.648438 6.542969-9.265626 18.519531 30.785157 30.785156 18.511719-9.257813 6.550781 19.648438h43.53125l6.550781-19.640625 18.511719 9.257813 30.785156-30.785157-9.265625-18.519531 19.65625-6.542969v-43.53125l-19.648438-6.542969zm-5.617188 36.601562v20.46875l-18.382812 6.128907-1.34375 3.5625c-.386719 1.015624-.785157 2.015624-1.226563 3l-1.550781 3.460937 8.648437 17.296875-14.472656 14.472656-17.296875-8.648437-3.464844 1.550781c-1 .449219-2.007812.839844-3.03125 1.242188l-3.527344 1.351562-6.121093 18.34375h-20.46875l-6.121094-18.351562-3.527344-1.351563c-1.023437-.402344-2.042969-.800781-3.035156-1.242187l-3.460937-1.550782-17.296876 8.648438-14.472656-14.472656 8.648438-17.296876-1.550782-3.460937c-.441406-.984375-.839843-1.984375-1.226562-3l-1.34375-3.5625-18.375-6.128906v-20.46875l18.382812-6.128907 1.34375-3.5625c.386719-1.015624.785157-2.015624 1.226563-3l1.550781-3.460937-8.648437-17.296875 14.472656-14.472656 17.296875 8.648437 3.464844-1.550781c1-.449219 2.007812-.839844 3.03125-1.242188l3.527344-1.351562 6.121093-18.34375h20.46875l6.121094 18.351562 3.527344 1.351563c1.023437.402344 2.042969.800781 3.035156 1.242187l3.460937 1.550782 17.296876-8.648438 14.472656 14.472656-8.648438 17.296876 1.550782 3.460937c.441406.984375.839843 1.984375 1.226562 3l1.34375 3.5625zm0 0"/><path d="m248 184c-22.054688 0-40 17.945312-40 40s17.945312 40 40 40 40-17.945312 40-40-17.945312-40-40-40zm0 64c-13.230469 0-24-10.769531-24-24s10.769531-24 24-24 24 10.769531 24 24-10.769531 24-24 24zm0 0"/></svg>